  0
SECTION
  2
HEADER
  9
$ACADVER
  1
AC1018
  9
$ACADMAINTVER
 70
     0
  9
$DWGCODEPAGE
  3
ANSI_932
  9
$INSBASE
 10
0.0
 20
0.0
 30
0.0
  9
$EXTMIN
 10
1.000000000000000E+20
 20
1.000000000000000E+20
 30
1.000000000000000E+20
  9
$EXTMAX
 10
-1.000000000000000E+20
 20
-1.000000000000000E+20
 30
-1.000000000000000E+20
  9
$LIMMIN
 10
0.0
 20
0.0
  9
$LIMMAX
 10
12.0
 20
9.0
  9
$ORTHOMODE
 70
     0
  9
$REGENMODE
 70
     1
  9
$FILLMODE
 70
     1
  9
$QTEXTMODE
 70
     0
  9
$MIRRTEXT
 70
     1
  9
$LTSCALE
 40
1.0
  9
$ATTMODE
 70
     1
  9
$TEXTSIZE
 40
0.2
  9
$TRACEWID
 40
0.05
  9
$TEXTSTYLE
  7
Standard
  9
$CLAYER
  8
0
  9
$CELTYPE
  6
ByLayer
  9
$CECOLOR
 62
   256
  9
$CELTSCALE
 40
1.0
  9
$DISPSILH
 70
     0
  9
$DIMSCALE
 40
1.0
  9
$DIMASZ
 40
0.18
  9
$DIMEXO
 40
0.0625
  9
$DIMDLI
 40
0.38
  9
$DIMRND
 40
0.0
  9
$DIMDLE
 40
0.0
  9
$DIMEXE
 40
0.18
  9
$DIMTP
 40
0.0
  9
$DIMTM
 40
0.0
  9
$DIMTXT
 40
0.18
  9
$DIMCEN
 40
0.09
  9
$DIMTSZ
 40
0.0
  9
$DIMTOL
 70
     0
  9
$DIMLIM
 70
     0
  9
$DIMTIH
 70
     1
  9
$DIMTOH
 70
     1
  9
$DIMSE1
 70
     0
  9
$DIMSE2
 70
     0
  9
$DIMTAD
 70
     0
  9
$DIMZIN
 70
     0
  9
$DIMBLK
  1

  9
$DIMASO
 70
     1
  9
$DIMSHO
 70
     1
  9
$DIMPOST
  1

  9
$DIMAPOST
  1

  9
$DIMALT
 70
     0
  9
$DIMALTD
 70
     2
  9
$DIMALTF
 40
25.4
  9
$DIMLFAC
 40
1.0
  9
$DIMTOFL
 70
     0
  9
$DIMTVP
 40
0.0
  9
$DIMTIX
 70
     0
  9
$DIMSOXD
 70
     0
  9
$DIMSAH
 70
     0
  9
$DIMBLK1
  1

  9
$DIMBLK2
  1

  9
$DIMSTYLE
  2
Standard
  9
$DIMCLRD
 70
     0
  9
$DIMCLRE
 70
     0
  9
$DIMCLRT
 70
     0
  9
$DIMTFAC
 40
1.0
  9
$DIMGAP
 40
0.09
  9
$DIMJUST
 70
     0
  9
$DIMSD1
 70
     0
  9
$DIMSD2
 70
     0
  9
$DIMTOLJ
 70
     1
  9
$DIMTZIN
 70
     0
  9
$DIMALTZ
 70
     0
  9
$DIMALTTZ
 70
     0
  9
$DIMUPT
 70
     0
  9
$DIMDEC
 70
     4
  9
$DIMTDEC
 70
     4
  9
$DIMALTU
 70
     2
  9
$DIMALTTD
 70
     2
  9
$DIMTXSTY
  7
Standard
  9
$DIMAUNIT
 70
     0
  9
$DIMADEC
 70
     0
  9
$DIMALTRND
 40
0.0
  9
$DIMAZIN
 70
     0
  9
$DIMDSEP
 70
    46
  9
$DIMATFIT
 70
     3
  9
$DIMFRAC
 70
     0
  9
$DIMLDRBLK
  1

  9
$DIMLUNIT
 70
     2
  9
$DIMLWD
 70
    -2
  9
$DIMLWE
 70
    -2
  9
$DIMTMOVE
 70
     0
  9
$LUNITS
 70
     2
  9
$LUPREC
 70
     4
  9
$SKETCHINC
 40
0.1
  9
$FILLETRAD
 40
0.5
  9
$AUNITS
 70
     0
  9
$AUPREC
 70
     0
  9
$MENU
  1
.
  9
$ELEVATION
 40
0.0
  9
$PELEVATION
 40
0.0
  9
$THICKNESS
 40
0.0
  9
$LIMCHECK
 70
     0
  9
$CHAMFERA
 40
0.5
  9
$CHAMFERB
 40
0.5
  9
$CHAMFERC
 40
1.0
  9
$CHAMFERD
 40
0.0
  9
$SKPOLY
 70
     0
  9
$TDCREATE
 40
2458455.941759259
  9
$TDUCREATE
 40
2458455.858425926
  9
$TDUPDATE
 40
2458455.941759271
  9
$TDUUPDATE
 40
2458455.858425938
  9
$TDINDWG
 40
0.0000000116
  9
$TDUSRTIMER
 40
0.0000000116
  9
$USRTIMER
 70
     1
  9
$ANGBASE
 50
0.0
  9
$ANGDIR
 70
     0
  9
$PDMODE
 70
     0
  9
$PDSIZE
 40
0.0
  9
$PLINEWID
 40
0.0
  9
$SPLFRAME
 70
     0
  9
$SPLINETYPE
 70
     6
  9
$SPLINESEGS
 70
     8
  9
$HANDSEED
  5
226
  9
$SURFTAB1
 70
     6
  9
$SURFTAB2
 70
     6
  9
$SURFTYPE
 70
     6
  9
$SURFU
 70
     6
  9
$SURFV
 70
     6
  9
$UCSBASE
  2

  9
$UCSNAME
  2

  9
$UCSORG
 10
0.0
 20
0.0
 30
0.0
  9
$UCSXDIR
 10
1.0
 20
0.0
 30
0.0
  9
$UCSYDIR
 10
0.0
 20
1.0
 30
0.0
  9
$UCSORTHOREF
  2

  9
$UCSORTHOVIEW
 70
     0
  9
$UCSORGTOP
 10
0.0
 20
0.0
 30
0.0
  9
$UCSORGBOTTOM
 10
0.0
 20
0.0
 30
0.0
  9
$UCSORGLEFT
 10
0.0
 20
0.0
 30
0.0
  9
$UCSORGRIGHT
 10
0.0
 20
0.0
 30
0.0
  9
$UCSORGFRONT
 10
0.0
 20
0.0
 30
0.0
  9
$UCSORGBACK
 10
0.0
 20
0.0
 30
0.0
  9
$PUCSBASE
  2

  9
$PUCSNAME
  2

  9
$PUCSORG
 10
0.0
 20
0.0
 30
0.0
  9
$PUCSXDIR
 10
1.0
 20
0.0
 30
0.0
  9
$PUCSYDIR
 10
0.0
 20
1.0
 30
0.0
  9
$PUCSORTHOREF
  2

  9
$PUCSORTHOVIEW
 70
     0
  9
$PUCSORGTOP
 10
0.0
 20
0.0
 30
0.0
  9
$PUCSORGBOTTOM
 10
0.0
 20
0.0
 30
0.0
  9
$PUCSORGLEFT
 10
0.0
 20
0.0
 30
0.0
  9
$PUCSORGRIGHT
 10
0.0
 20
0.0
 30
0.0
  9
$PUCSORGFRONT
 10
0.0
 20
0.0
 30
0.0
  9
$PUCSORGBACK
 10
0.0
 20
0.0
 30
0.0
  9
$USERI1
 70
     0
  9
$USERI2
 70
     0
  9
$USERI3
 70
     0
  9
$USERI4
 70
     0
  9
$USERI5
 70
     0
  9
$USERR1
 40
0.0
  9
$USERR2
 40
0.0
  9
$USERR3
 40
0.0
  9
$USERR4
 40
0.0
  9
$USERR5
 40
0.0
  9
$WORLDVIEW
 70
     1
  9
$SHADEDGE
 70
     3
  9
$SHADEDIF
 70
    70
  9
$TILEMODE
 70
     1
  9
$MAXACTVP
 70
    64
  9
$PINSBASE
 10
0.0
 20
0.0
 30
0.0
  9
$PLIMCHECK
 70
     0
  9
$PEXTMIN
 10
1.000000000000000E+20
 20
1.000000000000000E+20
 30
1.000000000000000E+20
  9
$PEXTMAX
 10
-1.000000000000000E+20
 20
-1.000000000000000E+20
 30
-1.000000000000000E+20
  9
$PLIMMIN
 10
0.0
 20
0.0
  9
$PLIMMAX
 10
12.0
 20
9.0
  9
$UNITMODE
 70
     0
  9
$VISRETAIN
 70
     1
  9
$PLINEGEN
 70
     0
  9
$PSLTSCALE
 70
     1
  9
$TREEDEPTH
 70
  3020
  9
$CMLSTYLE
  2
Standard
  9
$CMLJUST
 70
     0
  9
$CMLSCALE
 40
1.0
  9
$PROXYGRAPHICS
 70
     1
  9
$MEASUREMENT
 70
     0
  9
$CELWEIGHT
370
    -1
  9
$ENDCAPS
280
     0
  9
$JOINSTYLE
280
     0
  9
$LWDISPLAY
290
     1
  9
$INSUNITS
 70
     1
  9
$HYPERLINKBASE
  1

  9
$STYLESHEET
  1

  9
$XEDIT
290
     1
  9
$CEPSNTYPE
380
     0
  9
$PSTYLEMODE
290
     1
  9
$FINGERPRINTGUID
  2
{18DFD0B4-C8B7-3915-E96D-75CCC6C37136}
  9
$VERSIONGUID
  2
{FAEB1C32-E019-11D5-929B-00C0DF256EC4}
  9
$EXTNAMES
290
     1
  9
$PSVPSCALE
 40
0.0
  9
$OLESTARTUP
290
     0
  9
$SORTENTS
280
   127
  9
$INDEXCTL
280
     0
  9
$HIDETEXT
280
     1
  9
$XCLIPFRAME
290
     0
  9
$HALOGAP
280
     0
  9
$OBSCOLOR
 70
   257
  9
$OBSLTYPE
280
     0
  9
$INTERSECTIONDISPLAY
280
     0
  9
$INTERSECTIONCOLOR
 70
   257
  9
$DIMASSOC
280
     2
  9
$PROJECTNAME
  1

  0
ENDSEC
  0
SECTION
  2
CLASSES
  0
CLASS
  1
ACDBDICTIONARYWDFLT
  2
AcDbDictionaryWithDefault
  3
ObjectDBX Classes
 90
        0
 91
        3
280
     0
281
     0
  0
CLASS
  1
VISUALSTYLE
  2
AcDbVisualStyle
  3
ObjectDBX Classes
 90
     4095
 91
        3
280
     0
281
     0
  0
ENDSEC
  0
SECTION
  2
TABLES
  0
TABLE
  2
VPORT
  5
8
330
0
100
AcDbSymbolTable
 70
     1
  0
VPORT
  5
29
330
8
100
AcDbSymbolTableRecord
100
AcDbViewportTableRecord
  2
*Active
 70
     0
 10
0.0
 20
0.0
 11
1.0
 21
1.0
 12
0.0
 22
0.0
 13
0.0
 23
0.0
 14
0.5
 24
0.5
 15
0.5
 25
0.5
 16
0.0
 26
0.0
 36
1.0
 17
148.4999796178229
 27
105.0008259828644
 37
0.0
 40
210.0016519657288
 41
1.414274394775308
 42
50.0
 43
0.0
 44
0.0
 50
0.0
 51
0.0
 71
     0
 72
   100
 73
     1
 74
     3
 75
     0
 76
     0
 77
     0
 78
     0
281
     0
 65
     1
110
0.0
120
0.0
130
0.0
111
1.0
121
0.0
131
0.0
112
0.0
122
1.0
132
0.0
 79
     0
146
0.0
  0
ENDTAB
  0
TABLE
  2
LTYPE
  5
5
330
0
100
AcDbSymbolTable
 70
     2
  0
LTYPE
  5
14
330
5
100
AcDbSymbolTableRecord
100
AcDbLinetypeTableRecord
  2
ByBlock
 70
     0
  3

 72
    65
 73
     0
 40
0.0
  0
LTYPE
  5
15
330
5
100
AcDbSymbolTableRecord
100
AcDbLinetypeTableRecord
  2
ByLayer
 70
     0
  3

 72
    65
 73
     0
 40
0.0
  0
LTYPE
  5
16
330
5
100
AcDbSymbolTableRecord
100
AcDbLinetypeTableRecord
  2
Continuous
 70
     0
  3
Solid line
 72
    65
 73
     0
 40
0.0
  0
LTYPE
  5
224
330
5
100
AcDbSymbolTableRecord
100
AcDbLinetypeTableRecord
  2
AI-Linetype-1
 70
     0
  3
Adobe Illustrator Linetype No. 1
 72
    65
 73
     6
 40
23.98888888289167
 49
4.233333332275
 74
     0
 49
-3.527777776895833
 74
     0
 49
4.233333332275
 74
     0
 49
-4.233333332275
 74
     0
 49
3.527777776895833
 74
     0
 49
-4.233333332275
 74
     0
  0
ENDTAB
  0
TABLE
  2
LAYER
  5
2
330
0
100
AcDbSymbolTable
 70
     5
  0
LAYER
  5
10
330
2
100
AcDbSymbolTableRecord
100
AcDbLayerTableRecord
  2
0
 70
     0
 62
     7
  6
Continuous
370
    -3
390
F
  0
LAYER
  5
3B
330
2
100
AcDbSymbolTableRecord
100
AcDbLayerTableRecord
  2
Tausta
 70
     4
 62
     7
  6
Continuous
370
    -3
390
F
  0
LAYER
  5
3C
330
2
100
AcDbSymbolTableRecord
100
AcDbLayerTableRecord
  2
Talot
 70
     0
 62
     7
  6
Continuous
370
    -3
390
F
  0
LAYER
  5
1C1
330
2
100
AcDbSymbolTableRecord
100
AcDbLayerTableRecord
  2
Tiet
 70
     0
 62
     7
  6
Continuous
370
    -3
390
F
  0
LAYER
  5
215
330
2
100
AcDbSymbolTableRecord
100
AcDbLayerTableRecord
  2
Radat
 70
     0
 62
     7
  6
Continuous
370
    -3
390
F
  0
ENDTAB
  0
TABLE
  2
STYLE
  5
3
330
0
100
AcDbSymbolTable
 70
     1
  0
STYLE
  5
11
330
3
100
AcDbSymbolTableRecord
100
AcDbTextStyleTableRecord
  2
Standard
 70
     0
 40
0.0
 41
1.0
 50
0.0
 71
     0
 42
0.2
  3
txt
  4

  0
ENDTAB
  0
TABLE
  2
VIEW
  5
6
330
0
100
AcDbSymbolTable
 70
     0
  0
ENDTAB
  0
TABLE
  2
UCS
  5
7
330
0
100
AcDbSymbolTable
 70
     0
  0
ENDTAB
  0
TABLE
  2
APPID
  5
9
330
0
100
AcDbSymbolTable
 70
     1
  0
APPID
  5
12
330
9
100
AcDbSymbolTableRecord
100
AcDbRegAppTableRecord
  2
ACAD
 70
     0
  0
ENDTAB
  0
TABLE
  2
DIMSTYLE
  5
A
330
0
100
AcDbSymbolTable
 70
     1
100
AcDbDimStyleTable
  0
DIMSTYLE
105
27
330
A
100
AcDbSymbolTableRecord
100
AcDbDimStyleTableRecord
  2
Standard
 70
     0
340
11
  0
ENDTAB
  0
TABLE
  2
BLOCK_RECORD
  5
1
330
0
100
AcDbSymbolTable
 70
     5
  0
BLOCK_RECORD
  5
1F
330
1
100
AcDbSymbolTableRecord
100
AcDbBlockTableRecord
  2
*Model_Space
340
22
  0
BLOCK_RECORD
  5
1B
330
1
100
AcDbSymbolTableRecord
100
AcDbBlockTableRecord
  2
*Paper_Space
340
1E
  0
BLOCK_RECORD
  5
23
330
1
100
AcDbSymbolTableRecord
100
AcDbBlockTableRecord
  2
*Paper_Space0
340
26
  0
BLOCK_RECORD
  5
1DD
330
1
100
AcDbSymbolTableRecord
100
AcDbBlockTableRecord
  2
block 2
340
0
102
{BLKREFS
331
1DE
102
}
  0
BLOCK_RECORD
  5
1EA
330
1
100
AcDbSymbolTableRecord
100
AcDbBlockTableRecord
  2
block 3
340
0
102
{BLKREFS
331
1EB
102
}
  0
BLOCK_RECORD
  5
1F7
330
1
100
AcDbSymbolTableRecord
100
AcDbBlockTableRecord
  2
block 4
340
0
102
{BLKREFS
331
1F8
102
}
  0
BLOCK_RECORD
  5
216
330
1
100
AcDbSymbolTableRecord
100
AcDbBlockTableRecord
  2
block 5
340
0
102
{BLKREFS
331
217
102
}
  0
ENDTAB
  0
ENDSEC
  0
SECTION
  2
BLOCKS
  0
BLOCK
  5
20
330
1F
100
AcDbEntity
  8
0
100
AcDbBlockBegin
  2
*Model_Space
 70
     0
 71
     0
 10
0.0
 20
0.0
 30
0.0
  3
*Model_Space
  1

  0
ENDBLK
  5
21
330
1F
100
AcDbEntity
  8
0
100
AcDbBlockEnd
  0
BLOCK
  5
1C
330
1B
100
AcDbEntity
 67
     1
  8
0
100
AcDbBlockBegin
  2
*Paper_Space
 70
     0
 71
     0
 10
0.0
 20
0.0
 30
0.0
  3
*Paper_Space
  1

  0
ENDBLK
  5
1D
330
1B
100
AcDbEntity
 67
     1
  8
0
100
AcDbBlockEnd
  0
BLOCK
  5
24
330
23
100
AcDbEntity
  8
0
100
AcDbBlockBegin
  2
*Paper_Space0
 70
     0
 71
     0
 10
0.0
 20
0.0
 30
0.0
  3
*Paper_Space0
  1

  0
ENDBLK
  5
25
330
23
100
AcDbEntity
  8
0
100
AcDbBlockEnd
  0
BLOCK
  5
1DF
330
1DD
100
AcDbEntity
  8
0
100
AcDbBlockBegin
  2
block 2
 70
     0
 71
     0
 10
0.0
 20
0.0
 30
0.0
  3
block 2
  1

  0
POLYLINE
  5
1E1
330
1DD
100
AcDbEntity
  8
Tiet
 62
   179
420
  1907995
370
   211
100
AcDb2dPolyline
 66
     1
 10
0.0
 20
0.0
 30
0.0
  0
VERTEX
  5
1E2
330
1E1
100
AcDbEntity
  8
Tiet
 62
   179
420
  1907995
370
   211
100
AcDbVertex
100
AcDb2dVertex
 10
144.6388888527292
 20
69.49722220484792
 30
0.0
  0
VERTEX
  5
1E3
330
1E1
100
AcDbEntity
  8
Tiet
 62
   179
420
  1907995
370
   211
100
AcDbVertex
100
AcDb2dVertex
 10
142.5222221865917
 20
63.78904349533747
 30
0.0
  0
VERTEX
  5
1E4
330
1E1
100
AcDbEntity
  8
Tiet
 62
   179
420
  1907995
370
   211
100
AcDbVertex
100
AcDb2dVertex
 10
123.6646307742054
 20
70.23998479146779
 30
0.0
  0
SEQEND
  5
1E5
330
1E1
100
AcDbEntity
  8
Tiet
370
   211
  0
POLYLINE
  5
1E6
330
1DD
100
AcDbEntity
  8
Tiet
 62
   179
420
  1907995
370
   211
100
AcDb2dPolyline
 66
     1
 10
0.0
 20
0.0
 30
0.0
  0
VERTEX
  5
1E7
330
1E6
100
AcDbEntity
  8
Tiet
 62
   179
420
  1907995
370
   211
100
AcDbVertex
100
AcDb2dVertex
 10
140.0527777427646
 20
57.50277776340209
 30
0.0
  0
VERTEX
  5
1E8
330
1E6
100
AcDbEntity
  8
Tiet
 62
   179
420
  1907995
370
   211
100
AcDbVertex
100
AcDb2dVertex
 10
142.5222221865917
 20
63.78904349533747
 30
0.0
  0
SEQEND
  5
1E9
330
1E6
100
AcDbEntity
  8
Tiet
370
   211
  0
ENDBLK
  5
1E0
330
1DD
100
AcDbEntity
  8
0
100
AcDbBlockEnd
  0
BLOCK
  5
1EC
330
1EA
100
AcDbEntity
  8
0
100
AcDbBlockBegin
  2
block 3
 70
     0
 71
     0
 10
0.0
 20
0.0
 30
0.0
  3
block 3
  1

  0
POLYLINE
  5
1EE
330
1EA
100
AcDbEntity
  8
Tiet
 62
   179
420
  1907995
370
   211
100
AcDb2dPolyline
 66
     1
 10
0.0
 20
0.0
 30
0.0
  0
VERTEX
  5
1EF
330
1EE
100
AcDbEntity
  8
Tiet
 62
   179
420
  1907995
370
   211
100
AcDbVertex
100
AcDb2dVertex
 10
155.1257595098297
 20
93.91020234197384
 30
0.0
  0
VERTEX
  5
1F0
330
1EE
100
AcDbEntity
  8
Tiet
 62
   179
420
  1907995
370
   211
100
AcDbVertex
100
AcDb2dVertex
 10
153.0090928436922
 20
88.20202363246338
 30
0.0
  0
VERTEX
  5
1F1
330
1EE
100
AcDbEntity
  8
Tiet
 62
   179
420
  1907995
370
   211
100
AcDbVertex
100
AcDb2dVertex
 10
134.1516736860801
 20
94.6529649285937
 30
0.0
  0
SEQEND
  5
1F2
330
1EE
100
AcDbEntity
  8
Tiet
370
   211
  0
POLYLINE
  5
1F3
330
1EA
100
AcDbEntity
  8
Tiet
 62
   179
420
  1907995
370
   211
100
AcDb2dPolyline
 66
     1
 10
0.0
 20
0.0
 30
0.0
  0
VERTEX
  5
1F4
330
1F3
100
AcDbEntity
  8
Tiet
 62
   179
420
  1907995
370
   211
100
AcDbVertex
100
AcDb2dVertex
 10
150.5396483998651
 20
81.915757900528
 30
0.0
  0
VERTEX
  5
1F5
330
1F3
100
AcDbEntity
  8
Tiet
 62
   179
420
  1907995
370
   211
100
AcDbVertex
100
AcDb2dVertex
 10
153.0090928436922
 20
88.20202363246338
 30
0.0
  0
SEQEND
  5
1F6
330
1F3
100
AcDbEntity
  8
Tiet
370
   211
  0
ENDBLK
  5
1ED
330
1EA
100
AcDbEntity
  8
0
100
AcDbBlockEnd
  0
BLOCK
  5
1F9
330
1F7
100
AcDbEntity
  8
0
100
AcDbBlockBegin
  2
block 4
 70
     0
 71
     0
 10
0.0
 20
0.0
 30
0.0
  3
block 4
  1

  0
POLYLINE
  5
1FB
330
1F7
100
AcDbEntity
  8
Tiet
 62
   179
420
  1907995
370
   211
100
AcDb2dPolyline
 66
     1
 10
0.0
 20
0.0
 30
0.0
  0
VERTEX
  5
1FC
330
1FB
100
AcDbEntity
  8
Tiet
 62
   179
420
  1907995
370
   211
100
AcDbVertex
100
AcDb2dVertex
 10
164.6300889345369
 20
117.1141262185513
 30
0.0
  0
VERTEX
  5
1FD
330
1FB
100
AcDbEntity
  8
Tiet
 62
   179
420
  1907995
370
   211
100
AcDbVertex
100
AcDb2dVertex
 10
162.5134222683994
 20
111.4059475090409
 30
0.0
  0
VERTEX
  5
1FE
330
1FB
100
AcDbEntity
  8
Tiet
 62
   179
420
  1907995
370
   211
100
AcDbVertex
100
AcDb2dVertex
 10
143.6560031107874
 20
117.8568888051712
 30
0.0
  0
SEQEND
  5
1FF
330
1FB
100
AcDbEntity
  8
Tiet
370
   211
  0
POLYLINE
  5
200
330
1F7
100
AcDbEntity
  8
Tiet
 62
   179
420
  1907995
370
   211
100
AcDb2dPolyline
 66
     1
 10
0.0
 20
0.0
 30
0.0
  0
VERTEX
  5
201
330
200
100
AcDbEntity
  8
Tiet
 62
   179
420
  1907995
370
   211
100
AcDbVertex
100
AcDb2dVertex
 10
160.0439778245724
 20
105.1196817771055
 30
0.0
  0
VERTEX
  5
202
330
200
100
AcDbEntity
  8
Tiet
 62
   179
420
  1907995
370
   211
100
AcDbVertex
100
AcDb2dVertex
 10
162.5134222683994
 20
111.4059475090409
 30
0.0
  0
SEQEND
  5
203
330
200
100
AcDbEntity
  8
Tiet
370
   211
  0
ENDBLK
  5
1FA
330
1F7
100
AcDbEntity
  8
0
100
AcDbBlockEnd
  0
BLOCK
  5
218
330
216
100
AcDbEntity
  8
0
100
AcDbBlockBegin
  2
block 5
 70
     0
 71
     0
 10
0.0
 20
0.0
 30
0.0
  3
block 5
  1

  0
POLYLINE
  5
21A
330
216
100
AcDbEntity
  8
Radat
 62
   179
420
  1907995
370
   211
100
AcDb2dPolyline
 66
     1
 10
0.0
 20
0.0
 30
0.0
  0
VERTEX
  5
21B
330
21A
100
AcDbEntity
  8
Radat
 62
   179
420
  1907995
370
   211
100
AcDbVertex
100
AcDb2dVertex
 10
130.5375962672788
 20
-49.81332464032445
 30
0.0
  0
VERTEX
  5
21C
330
21A
100
AcDbEntity
  8
Radat
 62
   179
420
  1907995
370
   211
100
AcDbVertex
100
AcDb2dVertex
 10
146.4125962633101
 20
13.35008951489164
 30
0.0
  0
VERTEX
  5
21D
330
21A
100
AcDbEntity
  8
Radat
 62
   179
420
  1907995
370
   211
100
AcDbVertex
100
AcDb2dVertex
 10
219.08464621259
 20
177.3917561405479
 30
0.0
  0
SEQEND
  5
21E
330
21A
100
AcDbEntity
  8
Radat
370
   211
  0
POLYLINE
  5
21F
330
216
100
AcDbEntity
  8
Radat
  6
AI-Linetype-1
 62
   178
420
        0
370
   211
100
AcDb2dPolyline
 66
     1
 10
0.0
 20
0.0
 30
0.0
  0
VERTEX
  5
220
330
21F
100
AcDbEntity
  8
Radat
  6
AI-Linetype-1
 62
   178
420
        0
370
   211
100
AcDbVertex
100
AcDb2dVertex
 10
130.5375962672788
 20
-49.81332464032445
 30
0.0
  0
VERTEX
  5
221
330
21F
100
AcDbEntity
  8
Radat
  6
AI-Linetype-1
 62
   178
420
        0
370
   211
100
AcDbVertex
100
AcDb2dVertex
 10
146.4125962633101
 20
13.35008951489164
 30
0.0
  0
VERTEX
  5
222
330
21F
100
AcDbEntity
  8
Radat
  6
AI-Linetype-1
 62
   178
420
        0
370
   211
100
AcDbVertex
100
AcDb2dVertex
 10
219.08464621259
 20
177.3917561405479
 30
0.0
  0
SEQEND
  5
223
330
21F
100
AcDbEntity
  8
Radat
  6
AI-Linetype-1
370
   211
  0
ENDBLK
  5
219
330
216
100
AcDbEntity
  8
0
100
AcDbBlockEnd
  0
ENDSEC
  0
SECTION
  2
ENTITIES
  0
POLYLINE
  5
3D
330
1F
100
AcDbEntity
  8
Talot
 62
   179
420
  1907995
370
   211
100
AcDb2dPolyline
 66
     1
 10
0.0
 20
0.0
 30
0.0
  0
VERTEX
  5
3E
330
3D
100
AcDbEntity
  8
Talot
 62
   179
420
  1907995
370
   211
100
AcDbVertex
100
AcDb2dVertex
 10
176.3888888447917
 20
126.99999996825
 30
0.0
  0
VERTEX
  5
3F
330
3D
100
AcDbEntity
  8
Talot
 62
   179
420
  1907995
370
   211
100
AcDbVertex
100
AcDb2dVertex
 10
180.7986110659115
 20
122.0611110805958
 30
0.0
  0
VERTEX
  5
40
330
3D
100
AcDbEntity
  8
Talot
 62
   179
420
  1907995
370
   211
100
AcDbVertex
100
AcDb2dVertex
 10
177.9763888443948
 20
115.0055555268042
 30
0.0
  0
VERTEX
  5
41
330
3D
100
AcDbEntity
  8
Talot
 62
   179
420
  1907995
370
   211
100
AcDbVertex
100
AcDb2dVertex
 10
170.9656195319114
 20
114.8291666379594
 30
0.0
  0
VERTEX
  5
42
330
3D
100
AcDbEntity
  8
Talot
 62
   179
420
  1907995
370
   211
100
AcDbVertex
100
AcDb2dVertex
 10
171.0972221794479
 20
110.06666663915
 30
0.0
  0
VERTEX
  5
43
330
3D
100
AcDbEntity
  8
Talot
 62
   179
420
  1907995
370
   211
100
AcDbVertex
100
AcDb2dVertex
 10
180.9749999547563
 20
110.4194444168396
 30
0.0
  0
VERTEX
  5
44
330
3D
100
AcDbEntity
  8
Talot
 62
   179
420
  1907995
370
   211
100
AcDbVertex
100
AcDb2dVertex
 10
186.6194443977896
 20
123.1194444136646
 30
0.0
  0
VERTEX
  5
45
330
3D
100
AcDbEntity
  8
Talot
 62
   179
420
  1907995
370
   211
100
AcDbVertex
100
AcDb2dVertex
 10
180.0930555105323
 20
129.9986110786115
 30
0.0
  0
VERTEX
  5
46
330
3D
100
AcDbEntity
  8
Talot
 62
   179
420
  1907995
370
   211
100
AcDbVertex
100
AcDb2dVertex
 10
176.3888888447917
 20
126.99999996825
 30
0.0
  0
SEQEND
  5
47
330
3D
100
AcDbEntity
  8
Talot
370
   211
  0
HATCH
  5
48
330
1F
100
AcDbEntity
  8
Talot
 62
   179
420
  1907995
100
AcDbHatch
 10
0.0
 20
0.0
 30
0.0
210
0.0
220
0.0
230
1.0
  2
SOLID
 70
     1
 71
     0
 91
        1
 92
        1
 93
        8
 72
     1
 10
176.3888888447917
 20
126.99999996825
 11
180.7986110659115
 21
122.0611110805958
 72
     1
 10
180.7986110659115
 20
122.0611110805958
 11
177.9763888443948
 21
115.0055555268042
 72
     1
 10
177.9763888443948
 20
115.0055555268042
 11
170.9656195319114
 21
114.8291666379594
 72
     1
 10
170.9656195319114
 20
114.8291666379594
 11
171.0972221794479
 21
110.06666663915
 72
     1
 10
171.0972221794479
 20
110.06666663915
 11
180.9749999547563
 21
110.4194444168396
 72
     1
 10
180.9749999547563
 20
110.4194444168396
 11
186.6194443977896
 21
123.1194444136646
 72
     1
 10
186.6194443977896
 20
123.1194444136646
 11
180.0930555105323
 21
129.9986110786115
 72
     1
 10
180.0930555105323
 20
129.9986110786115
 11
176.3888888447917
 21
126.99999996825
 97
        0
 75
     2
 76
     1
 98
        0
  0
POLYLINE
  5
49
330
1F
100
AcDbEntity
  8
Talot
 62
   179
420
  1907995
370
   211
100
AcDb2dPolyline
 66
     1
 10
0.0
 20
0.0
 30
0.0
  0
VERTEX
  5
4A
330
49
100
AcDbEntity
  8
Talot
 62
   179
420
  1907995
370
   211
100
AcDbVertex
100
AcDb2dVertex
 10
166.099422158996
 20
103.5633598916439
 30
0.0
  0
VERTEX
  5
4B
330
49
100
AcDbEntity
  8
Talot
 62
   179
420
  1907995
370
   211
100
AcDbVertex
100
AcDb2dVertex
 10
170.5091443801158
 20
98.62447100398973
 30
0.0
  0
VERTEX
  5
4C
330
49
100
AcDbEntity
  8
Talot
 62
   179
420
  1907995
370
   211
100
AcDbVertex
100
AcDb2dVertex
 10
167.6869221585991
 20
91.56891545019805
 30
0.0
  0
VERTEX
  5
4D
330
49
100
AcDbEntity
  8
Talot
 62
   179
420
  1907995
370
   211
100
AcDbVertex
100
AcDb2dVertex
 10
160.6761528461157
 20
91.39252656135326
 30
0.0
  0
VERTEX
  5
4E
330
49
100
AcDbEntity
  8
Talot
 62
   179
420
  1907995
370
   211
100
AcDbVertex
100
AcDb2dVertex
 10
160.8077554936522
 20
86.63002656254389
 30
0.0
  0
VERTEX
  5
4F
330
49
100
AcDbEntity
  8
Talot
 62
   179
420
  1907995
370
   211
100
AcDbVertex
100
AcDb2dVertex
 10
170.6855332689606
 20
86.98280434023347
 30
0.0
  0
VERTEX
  5
50
330
49
100
AcDbEntity
  8
Talot
 62
   179
420
  1907995
370
   211
100
AcDbVertex
100
AcDb2dVertex
 10
176.3299777119939
 20
99.68280433705847
 30
0.0
  0
VERTEX
  5
51
330
49
100
AcDbEntity
  8
Talot
 62
   179
420
  1907995
370
   211
100
AcDbVertex
100
AcDb2dVertex
 10
169.8035888247366
 20
106.5621432567796
 30
0.0
  0
VERTEX
  5
52
330
49
100
AcDbEntity
  8
Talot
 62
   179
420
  1907995
370
   211
100
AcDbVertex
100
AcDb2dVertex
 10
166.099422158996
 20
103.5633598916439
 30
0.0
  0
SEQEND
  5
53
330
49
100
AcDbEntity
  8
Talot
370
   211
  0
HATCH
  5
54
330
1F
100
AcDbEntity
  8
Talot
 62
   179
420
  1907995
100
AcDbHatch
 10
0.0
 20
0.0
 30
0.0
210
0.0
220
0.0
230
1.0
  2
SOLID
 70
     1
 71
     0
 91
        1
 92
        1
 93
        8
 72
     1
 10
166.099422158996
 20
103.5633598916439
 11
170.5091443801158
 21
98.62447100398973
 72
     1
 10
170.5091443801158
 20
98.62447100398973
 11
167.6869221585991
 21
91.56891545019805
 72
     1
 10
167.6869221585991
 20
91.56891545019805
 11
160.6761528461157
 21
91.39252656135326
 72
     1
 10
160.6761528461157
 20
91.39252656135326
 11
160.8077554936522
 21
86.63002656254389
 72
     1
 10
160.8077554936522
 20
86.63002656254389
 11
170.6855332689606
 21
86.98280434023347
 72
     1
 10
170.6855332689606
 20
86.98280434023347
 11
176.3299777119939
 21
99.68280433705847
 72
     1
 10
176.3299777119939
 20
99.68280433705847
 11
169.8035888247366
 21
106.5621432567796
 72
     1
 10
169.8035888247366
 20
106.5621432567796
 11
166.099422158996
 21
103.5633598916439
 97
        0
 75
     2
 76
     1
 98
        0
  0
POLYLINE
  5
55
330
1F
100
AcDbEntity
  8
Talot
 62
   179
420
  1907995
370
   211
100
AcDb2dPolyline
 66
     1
 10
0.0
 20
0.0
 30
0.0
  0
VERTEX
  5
56
330
55
100
AcDbEntity
  8
Talot
 62
   179
420
  1907995
370
   211
100
AcDbVertex
100
AcDb2dVertex
 10
155.6473469662965
 20
80.0168212690583
 30
0.0
  0
VERTEX
  5
57
330
55
100
AcDbEntity
  8
Talot
 62
   179
420
  1907995
370
   211
100
AcDbVertex
100
AcDb2dVertex
 10
160.0570691874163
 20
75.07793238140412
 30
0.0
  0
VERTEX
  5
58
330
55
100
AcDbEntity
  8
Talot
 62
   179
420
  1907995
370
   211
100
AcDbVertex
100
AcDb2dVertex
 10
157.2348469658996
 20
68.02237682761246
 30
0.0
  0
VERTEX
  5
59
330
55
100
AcDbEntity
  8
Talot
 62
   179
420
  1907995
370
   211
100
AcDbVertex
100
AcDb2dVertex
 10
150.2240776534162
 20
67.84598793876768
 30
0.0
  0
VERTEX
  5
5A
330
55
100
AcDbEntity
  8
Talot
 62
   179
420
  1907995
370
   211
100
AcDbVertex
100
AcDb2dVertex
 10
150.3556803009527
 20
63.0834879399583
 30
0.0
  0
VERTEX
  5
5B
330
55
100
AcDbEntity
  8
Talot
 62
   179
420
  1907995
370
   211
100
AcDbVertex
100
AcDb2dVertex
 10
160.2334580762611
 20
63.43626571764788
 30
0.0
  0
VERTEX
  5
5C
330
55
100
AcDbEntity
  8
Talot
 62
   179
420
  1907995
370
   211
100
AcDbVertex
100
AcDb2dVertex
 10
165.8779025192944
 20
76.13626571447288
 30
0.0
  0
VERTEX
  5
5D
330
55
100
AcDbEntity
  8
Talot
 62
   179
420
  1907995
370
   211
100
AcDbVertex
100
AcDb2dVertex
 10
159.3515136320371
 20
83.01577688896828
 30
0.0
  0
VERTEX
  5
5E
330
55
100
AcDbEntity
  8
Talot
 62
   179
420
  1907995
370
   211
100
AcDbVertex
100
AcDb2dVertex
 10
155.6473469662965
 20
80.0168212690583
 30
0.0
  0
SEQEND
  5
5F
330
55
100
AcDbEntity
  8
Talot
370
   211
  0
HATCH
  5
60
330
1F
100
AcDbEntity
  8
Talot
 62
   179
420
  1907995
100
AcDbHatch
 10
0.0
 20
0.0
 30
0.0
210
0.0
220
0.0
230
1.0
  2
SOLID
 70
     1
 71
     0
 91
        1
 92
        1
 93
        8
 72
     1
 10
155.6473469662965
 20
80.0168212690583
 11
160.0570691874163
 21
75.07793238140412
 72
     1
 10
160.0570691874163
 20
75.07793238140412
 11
157.2348469658996
 21
68.02237682761246
 72
     1
 10
157.2348469658996
 20
68.02237682761246
 11
150.2240776534162
 21
67.84598793876768
 72
     1
 10
150.2240776534162
 20
67.84598793876768
 11
150.3556803009527
 21
63.0834879399583
 72
     1
 10
150.3556803009527
 20
63.0834879399583
 11
160.2334580762611
 21
63.43626571764788
 72
     1
 10
160.2334580762611
 20
63.43626571764788
 11
165.8779025192944
 21
76.13626571447288
 72
     1
 10
165.8779025192944
 20
76.13626571447288
 11
159.3515136320371
 21
83.01577688896828
 72
     1
 10
159.3515136320371
 20
83.01577688896828
 11
155.6473469662965
 21
80.0168212690583
 97
        0
 75
     2
 76
     1
 98
        0
  0
POLYLINE
  5
61
330
1F
100
AcDbEntity
  8
Talot
 62
   179
420
  1907995
370
   211
100
AcDb2dPolyline
 66
     1
 10
0.0
 20
0.0
 30
0.0
  0
VERTEX
  5
62
330
61
100
AcDbEntity
  8
Talot
 62
   179
420
  1907995
370
   211
100
AcDbVertex
100
AcDb2dVertex
 10
150.0042805614573
 20
40.01064994659456
 30
0.0
  0
VERTEX
  5
63
330
61
100
AcDbEntity
  8
Talot
 62
   179
420
  1907995
370
   211
100
AcDbVertex
100
AcDb2dVertex
 10
155.6487250044906
 20
52.71064994341956
 30
0.0
  0
VERTEX
  5
64
330
61
100
AcDbEntity
  8
Talot
 62
   179
420
  1907995
370
   211
100
AcDbVertex
100
AcDb2dVertex
 10
149.1223361172333
 20
59.59016111791496
 30
0.0
  0
VERTEX
  5
65
330
61
100
AcDbEntity
  8
Talot
 62
   179
420
  1907995
370
   211
100
AcDbVertex
100
AcDb2dVertex
 10
145.4179971967184
 20
56.59120549800498
 30
0.0
  0
VERTEX
  5
66
330
61
100
AcDbEntity
  8
Talot
 62
   179
420
  1907995
370
   211
100
AcDbVertex
100
AcDb2dVertex
 10
149.8278916726125
 20
51.65231661035081
 30
0.0
  0
VERTEX
  5
67
330
61
100
AcDbEntity
  8
Talot
 62
   179
420
  1907995
370
   211
100
AcDbVertex
100
AcDb2dVertex
 10
145.5943860855632
 20
41.77453883504248
 30
0.0
  0
VERTEX
  5
68
330
61
100
AcDbEntity
  8
Talot
 62
   179
420
  1907995
370
   211
100
AcDbVertex
100
AcDb2dVertex
 10
150.0042805614573
 20
40.01064994659456
 30
0.0
  0
SEQEND
  5
69
330
61
100
AcDbEntity
  8
Talot
370
   211
  0
HATCH
  5
6A
330
1F
100
AcDbEntity
  8
Talot
 62
   179
420
  1907995
100
AcDbHatch
 10
0.0
 20
0.0
 30
0.0
210
0.0
220
0.0
230
1.0
  2
SOLID
 70
     1
 71
     0
 91
        1
 92
        1
 93
        6
 72
     1
 10
150.0042805614573
 20
40.01064994659456
 11
155.6487250044906
 21
52.71064994341956
 72
     1
 10
155.6487250044906
 20
52.71064994341956
 11
149.1223361172333
 21
59.59016111791496
 72
     1
 10
149.1223361172333
 20
59.59016111791496
 11
145.4179971967184
 21
56.59120549800498
 72
     1
 10
145.4179971967184
 20
56.59120549800498
 11
149.8278916726125
 21
51.65231661035081
 72
     1
 10
149.8278916726125
 20
51.65231661035081
 11
145.5943860855632
 21
41.77453883504248
 72
     1
 10
145.5943860855632
 20
41.77453883504248
 11
150.0042805614573
 21
40.01064994659456
 97
        0
 75
     2
 76
     1
 98
        0
  0
POLYLINE
  5
6B
330
1F
100
AcDbEntity
  8
Talot
 62
   179
420
  1907995
370
   211
100
AcDb2dPolyline
 66
     1
 10
0.0
 20
0.0
 30
0.0
  0
VERTEX
  5
6C
330
6B
100
AcDbEntity
  8
Talot
 62
   179
420
  1907995
370
   211
100
AcDbVertex
100
AcDb2dVertex
 10
117.3887003287257
 20
47.58710393775601
 30
0.0
  0
VERTEX
  5
6D
330
6B
100
AcDbEntity
  8
Talot
 62
   179
420
  1907995
370
   211
100
AcDbVertex
100
AcDb2dVertex
 10
123.9615980050339
 20
63.66605358651405
 30
0.0
  0
VERTEX
  5
6E
330
6B
100
AcDbEntity
  8
Talot
 62
   179
420
  1907995
370
   211
100
AcDbVertex
100
AcDb2dVertex
 10
133.4433620543128
 20
63.78904349533747
 30
0.0
  0
VERTEX
  5
6F
330
6B
100
AcDbEntity
  8
Talot
 62
   179
420
  1907995
370
   211
100
AcDbVertex
100
AcDb2dVertex
 10
133.8788221236483
 20
59.04307995485729
 30
0.0
  0
VERTEX
  5
70
330
6B
100
AcDbEntity
  8
Talot
 62
   179
420
  1907995
370
   211
100
AcDbVertex
100
AcDb2dVertex
 10
127.2640665371944
 20
58.75713702958155
 30
0.0
  0
VERTEX
  5
71
330
6B
100
AcDbEntity
  8
Talot
 62
   179
420
  1907995
370
   211
100
AcDbVertex
100
AcDb2dVertex
 10
122.0817816535073
 20
46.0109727532542
 30
0.0
  0
VERTEX
  5
72
330
6B
100
AcDbEntity
  8
Talot
 62
   179
420
  1907995
370
   211
100
AcDbVertex
100
AcDb2dVertex
 10
117.3887003287257
 20
47.58710393775601
 30
0.0
  0
SEQEND
  5
73
330
6B
100
AcDbEntity
  8
Talot
370
   211
  0
HATCH
  5
74
330
1F
100
AcDbEntity
  8
Talot
 62
   179
420
  1907995
100
AcDbHatch
 10
0.0
 20
0.0
 30
0.0
210
0.0
220
0.0
230
1.0
  2
SOLID
 70
     1
 71
     0
 91
        1
 92
        1
 93
        6
 72
     1
 10
117.3887003287257
 20
47.58710393775601
 11
123.9615980050339
 21
63.66605358651405
 72
     1
 10
123.9615980050339
 20
63.66605358651405
 11
133.4433620543128
 21
63.78904349533747
 72
     1
 10
133.4433620543128
 20
63.78904349533747
 11
133.8788221236483
 21
59.04307995485729
 72
     1
 10
133.8788221236483
 20
59.04307995485729
 11
127.2640665371944
 21
58.75713702958155
 72
     1
 10
127.2640665371944
 20
58.75713702958155
 11
122.0817816535073
 21
46.0109727532542
 72
     1
 10
122.0817816535073
 20
46.0109727532542
 11
117.3887003287257
 21
47.58710393775601
 97
        0
 75
     2
 76
     1
 98
        0
  0
POLYLINE
  5
75
330
1F
100
AcDbEntity
  8
Talot
 62
   179
420
  1907995
370
   211
100
AcDb2dPolyline
 66
     1
 10
0.0
 20
0.0
 30
0.0
  0
VERTEX
  5
76
330
75
100
AcDbEntity
  8
Talot
 62
   179
420
  1907995
370
   211
100
AcDbVertex
100
AcDb2dVertex
 10
148.8529296502868
 20
37.04166665740625
 30
0.0
  0
VERTEX
  5
77
330
75
100
AcDbEntity
  8
Talot
 62
   179
420
  1907995
370
   211
100
AcDbVertex
100
AcDb2dVertex
 10
143.5805555196604
 20
24.69444443827084
 30
0.0
  0
VERTEX
  5
78
330
75
100
AcDbEntity
  8
Talot
 62
   179
420
  1907995
370
   211
100
AcDbVertex
100
AcDb2dVertex
 10
125.0597221909573
 20
31.7499999920625
 30
0.0
  0
VERTEX
  5
79
330
75
100
AcDbEntity
  8
Talot
 62
   179
420
  1907995
370
   211
100
AcDbVertex
100
AcDb2dVertex
 10
126.2970282344848
 20
36.15972221318229
 30
0.0
  0
VERTEX
  5
7A
330
75
100
AcDbEntity
  8
Talot
 62
   179
420
  1907995
370
   211
100
AcDbVertex
100
AcDb2dVertex
 10
140.7583332981438
 20
30.86805554783854
 30
0.0
  0
VERTEX
  5
7B
330
75
100
AcDbEntity
  8
Talot
 62
   179
420
  1907995
370
   211
100
AcDbVertex
100
AcDb2dVertex
 10
144.1097221861948
 20
38.80555554585417
 30
0.0
  0
VERTEX
  5
7C
330
75
100
AcDbEntity
  8
Talot
 62
   179
420
  1907995
370
   211
100
AcDbVertex
100
AcDb2dVertex
 10
148.8529296502868
 20
37.04166665740625
 30
0.0
  0
SEQEND
  5
7D
330
75
100
AcDbEntity
  8
Talot
370
   211
  0
HATCH
  5
7E
330
1F
100
AcDbEntity
  8
Talot
 62
   179
420
  1907995
100
AcDbHatch
 10
0.0
 20
0.0
 30
0.0
210
0.0
220
0.0
230
1.0
  2
SOLID
 70
     1
 71
     0
 91
        1
 92
        1
 93
        6
 72
     1
 10
148.8529296502868
 20
37.04166665740625
 11
143.5805555196604
 21
24.69444443827084
 72
     1
 10
143.5805555196604
 20
24.69444443827084
 11
125.0597221909573
 21
31.7499999920625
 72
     1
 10
125.0597221909573
 20
31.7499999920625
 11
126.2970282344848
 21
36.15972221318229
 72
     1
 10
126.2970282344848
 20
36.15972221318229
 11
140.7583332981438
 21
30.86805554783854
 72
     1
 10
140.7583332981438
 20
30.86805554783854
 11
144.1097221861948
 21
38.80555554585417
 72
     1
 10
144.1097221861948
 20
38.80555554585417
 11
148.8529296502868
 21
37.04166665740625
 97
        0
 75
     2
 76
     1
 98
        0
  0
POLYLINE
  5
7F
330
1F
100
AcDbEntity
  8
Talot
 62
   179
420
  1907995
370
   211
100
AcDb2dPolyline
 66
     1
 10
0.0
 20
0.0
 30
0.0
  0
VERTEX
  5
80
330
7F
100
AcDbEntity
  8
Talot
 62
   179
420
  1907995
370
   211
100
AcDbVertex
100
AcDb2dVertex
 10
122.2374999694406
 20
32.80833332513125
 30
0.0
  0
VERTEX
  5
81
330
7F
100
AcDbEntity
  8
Talot
 62
   179
420
  1907995
370
   211
100
AcDbVertex
100
AcDb2dVertex
 10
112.0069444164427
 20
35.27777776895834
 30
0.0
  0
VERTEX
  5
82
330
7F
100
AcDbEntity
  8
Talot
 62
   179
420
  1907995
370
   211
100
AcDbVertex
100
AcDb2dVertex
 10
113.5944444160458
 20
39.15833332354375
 30
0.0
  0
VERTEX
  5
83
330
7F
100
AcDbEntity
  8
Talot
 62
   179
420
  1907995
370
   211
100
AcDbVertex
100
AcDb2dVertex
 10
123.2958333025094
 20
36.86527776856146
 30
0.0
  0
VERTEX
  5
84
330
7F
100
AcDbEntity
  8
Talot
 62
   179
420
  1907995
370
   211
100
AcDbVertex
100
AcDb2dVertex
 10
122.2374999694406
 20
32.80833332513125
 30
0.0
  0
SEQEND
  5
85
330
7F
100
AcDbEntity
  8
Talot
370
   211
  0
HATCH
  5
86
330
1F
100
AcDbEntity
  8
Talot
 62
   179
420
  1907995
100
AcDbHatch
 10
0.0
 20
0.0
 30
0.0
210
0.0
220
0.0
230
1.0
  2
SOLID
 70
     1
 71
     0
 91
        1
 92
        1
 93
        4
 72
     1
 10
122.2374999694406
 20
32.80833332513125
 11
112.0069444164427
 21
35.27777776895834
 72
     1
 10
112.0069444164427
 20
35.27777776895834
 11
113.5944444160458
 21
39.15833332354375
 72
     1
 10
113.5944444160458
 20
39.15833332354375
 11
123.2958333025094
 21
36.86527776856146
 72
     1
 10
123.2958333025094
 20
36.86527776856146
 11
122.2374999694406
 21
32.80833332513125
 97
        0
 75
     2
 76
     1
 98
        0
  0
POLYLINE
  5
87
330
1F
100
AcDbEntity
  8
Talot
 62
   179
420
  1907995
370
   211
100
AcDb2dPolyline
 66
     1
 10
0.0
 20
0.0
 30
0.0
  0
VERTEX
  5
88
330
87
100
AcDbEntity
  8
Talot
 62
   179
420
  1907995
370
   211
100
AcDbVertex
100
AcDb2dVertex
 10
90.84027775506772
 20
44.27361110004271
 30
0.0
  0
VERTEX
  5
89
330
87
100
AcDbEntity
  8
Talot
 62
   179
420
  1907995
370
   211
100
AcDbVertex
100
AcDb2dVertex
 10
89.95833331084376
 20
40.56944443430208
 30
0.0
  0
VERTEX
  5
8A
330
87
100
AcDbEntity
  8
Talot
 62
   179
420
  1907995
370
   211
100
AcDbVertex
100
AcDb2dVertex
 10
106.1861110845646
 20
36.33611110202708
 30
0.0
  0
VERTEX
  5
8B
330
87
100
AcDbEntity
  8
Talot
 62
   179
420
  1907995
370
   211
100
AcDbVertex
100
AcDb2dVertex
 10
110.2430555279948
 20
46.0109727532542
 30
0.0
  0
VERTEX
  5
8C
330
87
100
AcDbEntity
  8
Talot
 62
   179
420
  1907995
370
   211
100
AcDbVertex
100
AcDb2dVertex
 10
107.0680555287885
 20
47.27222221040417
 30
0.0
  0
VERTEX
  5
8D
330
87
100
AcDbEntity
  8
Talot
 62
   179
420
  1907995
370
   211
100
AcDbVertex
100
AcDb2dVertex
 10
104.4222221961167
 20
40.74583332314688
 30
0.0
  0
VERTEX
  5
8E
330
87
100
AcDbEntity
  8
Talot
 62
   179
420
  1907995
370
   211
100
AcDbVertex
100
AcDb2dVertex
 10
90.84027775506772
 20
44.27361110004271
 30
0.0
  0
SEQEND
  5
8F
330
87
100
AcDbEntity
  8
Talot
370
   211
  0
HATCH
  5
90
330
1F
100
AcDbEntity
  8
Talot
 62
   179
420
  1907995
100
AcDbHatch
 10
0.0
 20
0.0
 30
0.0
210
0.0
220
0.0
230
1.0
  2
SOLID
 70
     1
 71
     0
 91
        1
 92
        1
 93
        6
 72
     1
 10
90.84027775506772
 20
44.27361110004271
 11
89.95833331084376
 21
40.56944443430208
 72
     1
 10
89.95833331084376
 20
40.56944443430208
 11
106.1861110845646
 21
36.33611110202708
 72
     1
 10
106.1861110845646
 20
36.33611110202708
 11
110.2430555279948
 21
46.0109727532542
 72
     1
 10
110.2430555279948
 20
46.0109727532542
 11
107.0680555287885
 21
47.27222221040417
 72
     1
 10
107.0680555287885
 20
47.27222221040417
 11
104.4222221961167
 21
40.74583332314688
 72
     1
 10
104.4222221961167
 20
40.74583332314688
 11
90.84027775506772
 21
44.27361110004271
 97
        0
 75
     2
 76
     1
 98
        0
  0
POLYLINE
  5
91
330
1F
100
AcDbEntity
  8
Talot
 62
   179
420
  1907995
370
   211
100
AcDb2dPolyline
 66
     1
 10
0.0
 20
0.0
 30
0.0
  0
VERTEX
  5
92
330
91
100
AcDbEntity
  8
Talot
 62
   179
420
  1907995
370
   211
100
AcDbVertex
100
AcDb2dVertex
 10
108.3882161187363
 20
50.73109807759501
 30
0.0
  0
VERTEX
  5
93
330
91
100
AcDbEntity
  8
Talot
 62
   179
420
  1907995
370
   211
100
AcDbVertex
100
AcDb2dVertex
 10
111.5659721943307
 20
49.47708332096406
 30
0.0
  0
VERTEX
  5
94
330
91
100
AcDbEntity
  8
Talot
 62
   179
420
  1907995
370
   211
100
AcDbVertex
100
AcDb2dVertex
 10
115.2701388600714
 20
58.17905000715663
 30
0.0
  0
VERTEX
  5
95
330
91
100
AcDbEntity
  8
Talot
 62
   179
420
  1907995
370
   211
100
AcDbVertex
100
AcDb2dVertex
 10
112.0951388608651
 20
59.2349717733857
 30
0.0
  0
VERTEX
  5
96
330
91
100
AcDbEntity
  8
Talot
 62
   179
420
  1907995
370
   211
100
AcDbVertex
100
AcDb2dVertex
 10
108.3882161187363
 20
50.73109807759501
 30
0.0
  0
SEQEND
  5
97
330
91
100
AcDbEntity
  8
Talot
370
   211
  0
HATCH
  5
98
330
1F
100
AcDbEntity
  8
Talot
 62
   179
420
  1907995
100
AcDbHatch
 10
0.0
 20
0.0
 30
0.0
210
0.0
220
0.0
230
1.0
  2
SOLID
 70
     1
 71
     0
 91
        1
 92
        1
 93
        4
 72
     1
 10
108.3882161187363
 20
50.73109807759501
 11
111.5659721943307
 21
49.47708332096406
 72
     1
 10
111.5659721943307
 20
49.47708332096406
 11
115.2701388600714
 21
58.17905000715663
 72
     1
 10
115.2701388600714
 20
58.17905000715663
 11
112.0951388608651
 21
59.2349717733857
 72
     1
 10
112.0951388608651
 20
59.2349717733857
 11
108.3882161187363
 21
50.73109807759501
 97
        0
 75
     2
 76
     1
 98
        0
  0
POLYLINE
  5
99
330
1F
100
AcDbEntity
  8
Talot
 62
   179
420
  1907995
370
   211
100
AcDb2dPolyline
 66
     1
 10
0.0
 20
0.0
 30
0.0
  0
VERTEX
  5
9A
330
99
100
AcDbEntity
  8
Talot
 62
   179
420
  1907995
370
   211
100
AcDbVertex
100
AcDb2dVertex
 10
113.418055527201
 20
62.73071016226871
 30
0.0
  0
VERTEX
  5
9B
330
99
100
AcDbEntity
  8
Talot
 62
   179
420
  1907995
370
   211
100
AcDbVertex
100
AcDb2dVertex
 10
116.8576388596745
 20
61.64791665125469
 30
0.0
  0
VERTEX
  5
9C
330
99
100
AcDbEntity
  8
Talot
 62
   179
420
  1907995
370
   211
100
AcDbVertex
100
AcDb2dVertex
 10
120.0326388588807
 20
68.87986109389115
 30
0.0
  0
VERTEX
  5
9D
330
99
100
AcDbEntity
  8
Talot
 62
   179
420
  1907995
370
   211
100
AcDbVertex
100
AcDb2dVertex
 10
112.0069444164427
 20
71.70208331540782
 30
0.0
  0
VERTEX
  5
9E
330
99
100
AcDbEntity
  8
Talot
 62
   179
420
  1907995
370
   211
100
AcDbVertex
100
AcDb2dVertex
 10
110.7722221945292
 20
68.61527776062397
 30
0.0
  0
VERTEX
  5
9F
330
99
100
AcDbEntity
  8
Talot
 62
   179
420
  1907995
370
   211
100
AcDbVertex
100
AcDb2dVertex
 10
115.3116522606686
 20
67.01055228359459
 30
0.0
  0
VERTEX
  5
A0
330
99
100
AcDbEntity
  8
Talot
 62
   179
420
  1907995
370
   211
100
AcDbVertex
100
AcDb2dVertex
 10
113.418055527201
 20
62.73071016226871
 30
0.0
  0
SEQEND
  5
A1
330
99
100
AcDbEntity
  8
Talot
370
   211
  0
HATCH
  5
A2
330
1F
100
AcDbEntity
  8
Talot
 62
   179
420
  1907995
100
AcDbHatch
 10
0.0
 20
0.0
 30
0.0
210
0.0
220
0.0
230
1.0
  2
SOLID
 70
     1
 71
     0
 91
        1
 92
        1
 93
        6
 72
     1
 10
113.418055527201
 20
62.73071016226871
 11
116.8576388596745
 21
61.64791665125469
 72
     1
 10
116.8576388596745
 20
61.64791665125469
 11
120.0326388588807
 21
68.87986109389115
 72
     1
 10
120.0326388588807
 20
68.87986109389115
 11
112.0069444164427
 21
71.70208331540782
 72
     1
 10
112.0069444164427
 20
71.70208331540782
 11
110.7722221945292
 21
68.61527776062397
 72
     1
 10
110.7722221945292
 20
68.61527776062397
 11
115.3116522606686
 21
67.01055228359459
 72
     1
 10
115.3116522606686
 20
67.01055228359459
 11
113.418055527201
 21
62.73071016226871
 97
        0
 75
     2
 76
     1
 98
        0
  0
POLYLINE
  5
A3
330
1F
100
AcDbEntity
  8
Talot
 62
   179
420
  1907995
370
   211
100
AcDb2dPolyline
 66
     1
 10
0.0
 20
0.0
 30
0.0
  0
VERTEX
  5
A4
330
A3
100
AcDbEntity
  8
Talot
 62
   179
420
  1907995
370
   211
100
AcDbVertex
100
AcDb2dVertex
 10
123.8015733197441
 20
87.00726451817874
 30
0.0
  0
VERTEX
  5
A5
330
A3
100
AcDbEntity
  8
Talot
 62
   179
420
  1907995
370
   211
100
AcDbVertex
100
AcDb2dVertex
 10
127.2411566522175
 20
85.92447100716473
 30
0.0
  0
VERTEX
  5
A6
330
A3
100
AcDbEntity
  8
Talot
 62
   179
420
  1907995
370
   211
100
AcDbVertex
100
AcDb2dVertex
 10
130.4161566514237
 20
93.15641544980117
 30
0.0
  0
VERTEX
  5
A7
330
A3
100
AcDbEntity
  8
Talot
 62
   179
420
  1907995
370
   211
100
AcDbVertex
100
AcDb2dVertex
 10
122.3904622089857
 20
95.97863767131784
 30
0.0
  0
VERTEX
  5
A8
330
A3
100
AcDbEntity
  8
Talot
 62
   179
420
  1907995
370
   211
100
AcDbVertex
100
AcDb2dVertex
 10
121.1557399870722
 20
92.89183211653399
 30
0.0
  0
VERTEX
  5
A9
330
A3
100
AcDbEntity
  8
Talot
 62
   179
420
  1907995
370
   211
100
AcDbVertex
100
AcDb2dVertex
 10
125.6951700532116
 20
91.28710663950461
 30
0.0
  0
VERTEX
  5
AA
330
A3
100
AcDbEntity
  8
Talot
 62
   179
420
  1907995
370
   211
100
AcDbVertex
100
AcDb2dVertex
 10
123.8015733197441
 20
87.00726451817874
 30
0.0
  0
SEQEND
  5
AB
330
A3
100
AcDbEntity
  8
Talot
370
   211
  0
HATCH
  5
AC
330
1F
100
AcDbEntity
  8
Talot
 62
   179
420
  1907995
100
AcDbHatch
 10
0.0
 20
0.0
 30
0.0
210
0.0
220
0.0
230
1.0
  2
SOLID
 70
     1
 71
     0
 91
        1
 92
        1
 93
        6
 72
     1
 10
123.8015733197441
 20
87.00726451817874
 11
127.2411566522175
 21
85.92447100716473
 72
     1
 10
127.2411566522175
 20
85.92447100716473
 11
130.4161566514237
 21
93.15641544980117
 72
     1
 10
130.4161566514237
 20
93.15641544980117
 11
122.3904622089857
 21
95.97863767131784
 72
     1
 10
122.3904622089857
 20
95.97863767131784
 11
121.1557399870722
 21
92.89183211653399
 72
     1
 10
121.1557399870722
 20
92.89183211653399
 11
125.6951700532116
 21
91.28710663950461
 72
     1
 10
125.6951700532116
 20
91.28710663950461
 11
123.8015733197441
 21
87.00726451817874
 97
        0
 75
     2
 76
     1
 98
        0
  0
POLYLINE
  5
AD
330
1F
100
AcDbEntity
  8
Talot
 62
   179
420
  1907995
370
   211
100
AcDb2dPolyline
 66
     1
 10
0.0
 20
0.0
 30
0.0
  0
VERTEX
  5
AE
330
AD
100
AcDbEntity
  8
Talot
 62
   179
420
  1907995
370
   211
100
AcDbVertex
100
AcDb2dVertex
 10
121.5975734830555
 20
81.44309079995173
 30
0.0
  0
VERTEX
  5
AF
330
AD
100
AcDbEntity
  8
Talot
 62
   179
420
  1907995
370
   211
100
AcDbVertex
100
AcDb2dVertex
 10
125.1101928398162
 20
80.41094019257088
 30
0.0
  0
VERTEX
  5
B0
330
AD
100
AcDbEntity
  8
Talot
 62
   179
420
  1907995
370
   211
100
AcDbVertex
100
AcDb2dVertex
 10
122.0778197936993
 20
73.1180175598455
 30
0.0
  0
VERTEX
  5
B1
330
AD
100
AcDbEntity
  8
Talot
 62
   179
420
  1907995
370
   211
100
AcDbVertex
100
AcDb2dVertex
 10
113.7856472154772
 20
76.26235620923302
 30
0.0
  0
VERTEX
  5
B2
330
AD
100
AcDbEntity
  8
Talot
 62
   179
420
  1907995
370
   211
100
AcDbVertex
100
AcDb2dVertex
 10
114.8103908675648
 20
79.64096135161753
 30
0.0
  0
VERTEX
  5
B3
330
AD
100
AcDbEntity
  8
Talot
 62
   179
420
  1907995
370
   211
100
AcDbVertex
100
AcDb2dVertex
 10
120.1759548310671
 20
77.75442706389472
 30
0.0
  0
VERTEX
  5
B4
330
AD
100
AcDbEntity
  8
Talot
 62
   179
420
  1907995
370
   211
100
AcDbVertex
100
AcDb2dVertex
 10
121.5975734830555
 20
81.44309079995173
 30
0.0
  0
SEQEND
  5
B5
330
AD
100
AcDbEntity
  8
Talot
370
   211
  0
HATCH
  5
B6
330
1F
100
AcDbEntity
  8
Talot
 62
   179
420
  1907995
100
AcDbHatch
 10
0.0
 20
0.0
 30
0.0
210
0.0
220
0.0
230
1.0
  2
SOLID
 70
     1
 71
     0
 91
        1
 92
        1
 93
        6
 72
     1
 10
121.5975734830555
 20
81.44309079995173
 11
125.1101928398162
 21
80.41094019257088
 72
     1
 10
125.1101928398162
 20
80.41094019257088
 11
122.0778197936993
 21
73.1180175598455
 72
     1
 10
122.0778197936993
 20
73.1180175598455
 11
113.7856472154772
 21
76.26235620923302
 72
     1
 10
113.7856472154772
 20
76.26235620923302
 11
114.8103908675648
 21
79.64096135161753
 72
     1
 10
114.8103908675648
 20
79.64096135161753
 11
120.1759548310671
 21
77.75442706389472
 72
     1
 10
120.1759548310671
 20
77.75442706389472
 11
121.5975734830555
 21
81.44309079995173
 97
        0
 75
     2
 76
     1
 98
        0
  0
POLYLINE
  5
B7
330
1F
100
AcDbEntity
  8
Talot
 62
   179
420
  1907995
370
   211
100
AcDb2dPolyline
 66
     1
 10
0.0
 20
0.0
 30
0.0
  0
VERTEX
  5
B8
330
B7
100
AcDbEntity
  8
Talot
 62
   179
420
  1907995
370
   211
100
AcDbVertex
100
AcDb2dVertex
 10
133.3661919154432
 20
110.5024712180341
 30
0.0
  0
VERTEX
  5
B9
330
B7
100
AcDbEntity
  8
Talot
 62
   179
420
  1907995
370
   211
100
AcDbVertex
100
AcDb2dVertex
 10
136.8057752479166
 20
109.4196777070201
 30
0.0
  0
VERTEX
  5
BA
330
B7
100
AcDbEntity
  8
Talot
 62
   179
420
  1907995
370
   211
100
AcDbVertex
100
AcDb2dVertex
 10
139.9807752471229
 20
116.6516221496565
 30
0.0
  0
VERTEX
  5
BB
330
B7
100
AcDbEntity
  8
Talot
 62
   179
420
  1907995
370
   211
100
AcDbVertex
100
AcDb2dVertex
 10
131.9550808046849
 20
119.4738443711732
 30
0.0
  0
VERTEX
  5
BC
330
B7
100
AcDbEntity
  8
Talot
 62
   179
420
  1907995
370
   211
100
AcDbVertex
100
AcDb2dVertex
 10
130.7203585827713
 20
116.3870388163894
 30
0.0
  0
VERTEX
  5
BD
330
B7
100
AcDbEntity
  8
Talot
 62
   179
420
  1907995
370
   211
100
AcDbVertex
100
AcDb2dVertex
 10
135.2597886489108
 20
114.78231333936
 30
0.0
  0
VERTEX
  5
BE
330
B7
100
AcDbEntity
  8
Talot
 62
   179
420
  1907995
370
   211
100
AcDbVertex
100
AcDb2dVertex
 10
133.3661919154432
 20
110.5024712180341
 30
0.0
  0
SEQEND
  5
BF
330
B7
100
AcDbEntity
  8
Talot
370
   211
  0
HATCH
  5
C0
330
1F
100
AcDbEntity
  8
Talot
 62
   179
420
  1907995
100
AcDbHatch
 10
0.0
 20
0.0
 30
0.0
210
0.0
220
0.0
230
1.0
  2
SOLID
 70
     1
 71
     0
 91
        1
 92
        1
 93
        6
 72
     1
 10
133.3661919154432
 20
110.5024712180341
 11
136.8057752479166
 21
109.4196777070201
 72
     1
 10
136.8057752479166
 20
109.4196777070201
 11
139.9807752471229
 21
116.6516221496565
 72
     1
 10
139.9807752471229
 20
116.6516221496565
 11
131.9550808046849
 21
119.4738443711732
 72
     1
 10
131.9550808046849
 20
119.4738443711732
 11
130.7203585827713
 21
116.3870388163894
 72
     1
 10
130.7203585827713
 20
116.3870388163894
 11
135.2597886489108
 21
114.78231333936
 72
     1
 10
135.2597886489108
 20
114.78231333936
 11
133.3661919154432
 21
110.5024712180341
 97
        0
 75
     2
 76
     1
 98
        0
  0
POLYLINE
  5
C1
330
1F
100
AcDbEntity
  8
Talot
 62
   179
420
  1907995
370
   211
100
AcDb2dPolyline
 66
     1
 10
0.0
 20
0.0
 30
0.0
  0
VERTEX
  5
C2
330
C1
100
AcDbEntity
  8
Talot
 62
   179
420
  1907995
370
   211
100
AcDbVertex
100
AcDb2dVertex
 10
131.8677476341338
 20
106.3494086105654
 30
0.0
  0
VERTEX
  5
C3
330
C1
100
AcDbEntity
  8
Talot
 62
   179
420
  1907995
370
   211
100
AcDbVertex
100
AcDb2dVertex
 10
135.3803669908945
 20
105.3172580031846
 30
0.0
  0
VERTEX
  5
C4
330
C1
100
AcDbEntity
  8
Talot
 62
   179
420
  1907995
370
   211
100
AcDbVertex
100
AcDb2dVertex
 10
132.3479939447776
 20
98.0243353704592
 30
0.0
  0
VERTEX
  5
C5
330
C1
100
AcDbEntity
  8
Talot
 62
   179
420
  1907995
370
   211
100
AcDbVertex
100
AcDb2dVertex
 10
124.0558213665555
 20
101.1686740198467
 30
0.0
  0
VERTEX
  5
C6
330
C1
100
AcDbEntity
  8
Talot
 62
   179
420
  1907995
370
   211
100
AcDbVertex
100
AcDb2dVertex
 10
125.0805650186431
 20
104.5472791622312
 30
0.0
  0
VERTEX
  5
C7
330
C1
100
AcDbEntity
  8
Talot
 62
   179
420
  1907995
370
   211
100
AcDbVertex
100
AcDb2dVertex
 10
130.4461289821454
 20
102.6607448745084
 30
0.0
  0
VERTEX
  5
C8
330
C1
100
AcDbEntity
  8
Talot
 62
   179
420
  1907995
370
   211
100
AcDbVertex
100
AcDb2dVertex
 10
131.8677476341338
 20
106.3494086105654
 30
0.0
  0
SEQEND
  5
C9
330
C1
100
AcDbEntity
  8
Talot
370
   211
  0
HATCH
  5
CA
330
1F
100
AcDbEntity
  8
Talot
 62
   179
420
  1907995
100
AcDbHatch
 10
0.0
 20
0.0
 30
0.0
210
0.0
220
0.0
230
1.0
  2
SOLID
 70
     1
 71
     0
 91
        1
 92
        1
 93
        6
 72
     1
 10
131.8677476341338
 20
106.3494086105654
 11
135.3803669908945
 21
105.3172580031846
 72
     1
 10
135.3803669908945
 20
105.3172580031846
 11
132.3479939447776
 21
98.0243353704592
 72
     1
 10
132.3479939447776
 20
98.0243353704592
 11
124.0558213665555
 21
101.1686740198467
 72
     1
 10
124.0558213665555
 20
101.1686740198467
 11
125.0805650186431
 21
104.5472791622312
 72
     1
 10
125.0805650186431
 20
104.5472791622312
 11
130.4461289821454
 21
102.6607448745084
 72
     1
 10
130.4461289821454
 20
102.6607448745084
 11
131.8677476341338
 21
106.3494086105654
 97
        0
 75
     2
 76
     1
 98
        0
  0
POLYLINE
  5
CB
330
1F
100
AcDbEntity
  8
Talot
 62
   179
420
  1907995
370
   211
100
AcDb2dPolyline
 66
     1
 10
0.0
 20
0.0
 30
0.0
  0
VERTEX
  5
CC
330
CB
100
AcDbEntity
  8
Talot
 62
   179
420
  1907995
370
   211
100
AcDbVertex
100
AcDb2dVertex
 10
105.2679931377455
 20
74.31863333645506
 30
0.0
  0
VERTEX
  5
CD
330
CB
100
AcDbEntity
  8
Talot
 62
   179
420
  1907995
370
   211
100
AcDbVertex
100
AcDb2dVertex
 10
108.8204033473609
 20
72.90924477343935
 30
0.0
  0
VERTEX
  5
CE
330
CB
100
AcDbEntity
  8
Talot
 62
   179
420
  1907995
370
   211
100
AcDbVertex
100
AcDb2dVertex
 10
107.5560533042742
 20
69.72218694003473
 30
0.0
  0
VERTEX
  5
CF
330
CB
100
AcDbEntity
  8
Talot
 62
   179
420
  1907995
370
   211
100
AcDbVertex
100
AcDb2dVertex
 10
104.0036430946588
 20
71.13157550305044
 30
0.0
  0
VERTEX
  5
D0
330
CB
100
AcDbEntity
  8
Talot
 62
   179
420
  1907995
370
   211
100
AcDbVertex
100
AcDb2dVertex
 10
105.2679931377455
 20
74.31863333645506
 30
0.0
  0
SEQEND
  5
D1
330
CB
100
AcDbEntity
  8
Talot
370
   211
  0
HATCH
  5
D2
330
1F
100
AcDbEntity
  8
Talot
 62
   179
420
  1907995
100
AcDbHatch
 10
0.0
 20
0.0
 30
0.0
210
0.0
220
0.0
230
1.0
  2
SOLID
 70
     1
 71
     0
 91
        1
 92
        1
 93
        4
 72
     1
 10
105.2679931377455
 20
74.31863333645506
 11
108.8204033473609
 21
72.90924477343935
 72
     1
 10
108.8204033473609
 20
72.90924477343935
 11
107.5560533042742
 21
69.72218694003473
 72
     1
 10
107.5560533042742
 20
69.72218694003473
 11
104.0036430946588
 21
71.13157550305044
 72
     1
 10
104.0036430946588
 20
71.13157550305044
 11
105.2679931377455
 21
74.31863333645506
 97
        0
 75
     2
 76
     1
 98
        0
  0
POLYLINE
  5
D3
330
1F
100
AcDbEntity
  8
Talot
 62
   179
420
  1907995
370
   211
100
AcDb2dPolyline
 66
     1
 10
0.0
 20
0.0
 30
0.0
  0
VERTEX
  5
D4
330
D3
100
AcDbEntity
  8
Talot
 62
   179
420
  1907995
370
   211
100
AcDbVertex
100
AcDb2dVertex
 10
107.9792832846371
 20
82.10351560447413
 30
0.0
  0
VERTEX
  5
D5
330
D3
100
AcDbEntity
  8
Talot
 62
   179
420
  1907995
370
   211
100
AcDbVertex
100
AcDb2dVertex
 10
111.6023179517001
 20
80.88705238863241
 30
0.0
  0
VERTEX
  5
D6
330
D3
100
AcDbEntity
  8
Talot
 62
   179
420
  1907995
370
   211
100
AcDbVertex
100
AcDb2dVertex
 10
110.510911701973
 20
77.63660479829919
 30
0.0
  0
VERTEX
  5
D7
330
D3
100
AcDbEntity
  8
Talot
 62
   179
420
  1907995
370
   211
100
AcDbVertex
100
AcDb2dVertex
 10
106.88787703491
 20
78.8530680141409
 30
0.0
  0
VERTEX
  5
D8
330
D3
100
AcDbEntity
  8
Talot
 62
   179
420
  1907995
370
   211
100
AcDbVertex
100
AcDb2dVertex
 10
107.9792832846371
 20
82.10351560447413
 30
0.0
  0
SEQEND
  5
D9
330
D3
100
AcDbEntity
  8
Talot
370
   211
  0
HATCH
  5
DA
330
1F
100
AcDbEntity
  8
Talot
 62
   179
420
  1907995
100
AcDbHatch
 10
0.0
 20
0.0
 30
0.0
210
0.0
220
0.0
230
1.0
  2
SOLID
 70
     1
 71
     0
 91
        1
 92
        1
 93
        4
 72
     1
 10
107.9792832846371
 20
82.10351560447413
 11
111.6023179517001
 21
80.88705238863241
 72
     1
 10
111.6023179517001
 20
80.88705238863241
 11
110.510911701973
 21
77.63660479829919
 72
     1
 10
110.510911701973
 20
77.63660479829919
 11
106.88787703491
 21
78.8530680141409
 72
     1
 10
106.88787703491
 20
78.8530680141409
 11
107.9792832846371
 21
82.10351560447413
 97
        0
 75
     2
 76
     1
 98
        0
  0
POLYLINE
  5
DB
330
1F
100
AcDbEntity
  8
Talot
 62
   179
420
  1907995
370
   211
100
AcDb2dPolyline
 66
     1
 10
0.0
 20
0.0
 30
0.0
  0
VERTEX
  5
DC
330
DB
100
AcDbEntity
  8
Talot
 62
   179
420
  1907995
370
   211
100
AcDbVertex
100
AcDb2dVertex
 10
115.5302435692077
 20
98.50768226703975
 30
0.0
  0
VERTEX
  5
DD
330
DB
100
AcDbEntity
  8
Talot
 62
   179
420
  1907995
370
   211
100
AcDbVertex
100
AcDb2dVertex
 10
119.0826537788231
 20
97.09829370402404
 30
0.0
  0
VERTEX
  5
DE
330
DB
100
AcDbEntity
  8
Talot
 62
   179
420
  1907995
370
   211
100
AcDbVertex
100
AcDb2dVertex
 10
117.8183037357364
 20
93.91123587061942
 30
0.0
  0
VERTEX
  5
DF
330
DB
100
AcDbEntity
  8
Talot
 62
   179
420
  1907995
370
   211
100
AcDbVertex
100
AcDb2dVertex
 10
114.265893526121
 20
95.32062443363513
 30
0.0
  0
VERTEX
  5
E0
330
DB
100
AcDbEntity
  8
Talot
 62
   179
420
  1907995
370
   211
100
AcDbVertex
100
AcDb2dVertex
 10
115.5302435692077
 20
98.50768226703975
 30
0.0
  0
SEQEND
  5
E1
330
DB
100
AcDbEntity
  8
Talot
370
   211
  0
HATCH
  5
E2
330
1F
100
AcDbEntity
  8
Talot
 62
   179
420
  1907995
100
AcDbHatch
 10
0.0
 20
0.0
 30
0.0
210
0.0
220
0.0
230
1.0
  2
SOLID
 70
     1
 71
     0
 91
        1
 92
        1
 93
        4
 72
     1
 10
115.5302435692077
 20
98.50768226703975
 11
119.0826537788231
 21
97.09829370402404
 72
     1
 10
119.0826537788231
 20
97.09829370402404
 11
117.8183037357364
 21
93.91123587061942
 72
     1
 10
117.8183037357364
 20
93.91123587061942
 11
114.265893526121
 21
95.32062443363513
 72
     1
 10
114.265893526121
 20
95.32062443363513
 11
115.5302435692077
 21
98.50768226703975
 97
        0
 75
     2
 76
     1
 98
        0
  0
POLYLINE
  5
E3
330
1F
100
AcDbEntity
  8
Talot
 62
   179
420
  1907995
370
   211
100
AcDb2dPolyline
 66
     1
 10
0.0
 20
0.0
 30
0.0
  0
VERTEX
  5
E4
330
E3
100
AcDbEntity
  8
Talot
 62
   179
420
  1907995
370
   211
100
AcDbVertex
100
AcDb2dVertex
 10
117.9996880130348
 20
106.8706515574837
 30
0.0
  0
VERTEX
  5
E5
330
E3
100
AcDbEntity
  8
Talot
 62
   179
420
  1907995
370
   211
100
AcDbVertex
100
AcDb2dVertex
 10
121.6309909092624
 20
105.6788207743616
 30
0.0
  0
VERTEX
  5
E6
330
E3
100
AcDbEntity
  8
Talot
 62
   179
420
  1907995
370
   211
100
AcDbVertex
100
AcDb2dVertex
 10
120.5618055254151
 20
102.420966228735
 30
0.0
  0
VERTEX
  5
E7
330
E3
100
AcDbEntity
  8
Talot
 62
   179
420
  1907995
370
   211
100
AcDbVertex
100
AcDb2dVertex
 10
116.930847138736
 20
103.612624757083
 30
0.0
  0
VERTEX
  5
E8
330
E3
100
AcDbEntity
  8
Talot
 62
   179
420
  1907995
370
   211
100
AcDbVertex
100
AcDb2dVertex
 10
117.9996880130348
 20
106.8706515574837
 30
0.0
  0
SEQEND
  5
E9
330
E3
100
AcDbEntity
  8
Talot
370
   211
  0
HATCH
  5
EA
330
1F
100
AcDbEntity
  8
Talot
 62
   179
420
  1907995
100
AcDbHatch
 10
0.0
 20
0.0
 30
0.0
210
0.0
220
0.0
230
1.0
  2
SOLID
 70
     1
 71
     0
 91
        1
 92
        1
 93
        4
 72
     1
 10
117.9996880130348
 20
106.8706515574837
 11
121.6309909092624
 21
105.6788207743616
 72
     1
 10
121.6309909092624
 20
105.6788207743616
 11
120.5618055254151
 21
102.420966228735
 72
     1
 10
120.5618055254151
 20
102.420966228735
 11
116.930847138736
 21
103.612624757083
 72
     1
 10
116.930847138736
 20
103.612624757083
 11
117.9996880130348
 21
106.8706515574837
 97
        0
 75
     2
 76
     1
 98
        0
  0
POLYLINE
  5
EB
330
1F
100
AcDbEntity
  8
Talot
 62
   179
420
  1907995
370
   211
100
AcDb2dPolyline
 66
     1
 10
0.0
 20
0.0
 30
0.0
  0
VERTEX
  5
EC
330
EB
100
AcDbEntity
  8
Talot
 62
   179
420
  1907995
370
   211
100
AcDbVertex
100
AcDb2dVertex
 10
124.5569105048851
 20
121.9339870571901
 30
0.0
  0
VERTEX
  5
ED
330
EB
100
AcDbEntity
  8
Talot
 62
   179
420
  1907995
370
   211
100
AcDbVertex
100
AcDb2dVertex
 10
128.1594468538108
 20
120.6579236894536
 30
0.0
  0
VERTEX
  5
EE
330
EB
100
AcDbEntity
  8
Talot
 62
   179
420
  1907995
370
   211
100
AcDbVertex
100
AcDb2dVertex
 10
127.0146416240623
 20
117.4257351051922
 30
0.0
  0
VERTEX
  5
EF
330
EB
100
AcDbEntity
  8
Talot
 62
   179
420
  1907995
370
   211
100
AcDbVertex
100
AcDb2dVertex
 10
123.4124497846851
 20
118.7016262181545
 30
0.0
  0
VERTEX
  5
F0
330
EB
100
AcDbEntity
  8
Talot
 62
   179
420
  1907995
370
   211
100
AcDbVertex
100
AcDb2dVertex
 10
124.5569105048851
 20
121.9339870571901
 30
0.0
  0
SEQEND
  5
F1
330
EB
100
AcDbEntity
  8
Talot
370
   211
  0
HATCH
  5
F2
330
1F
100
AcDbEntity
  8
Talot
 62
   179
420
  1907995
100
AcDbHatch
 10
0.0
 20
0.0
 30
0.0
210
0.0
220
0.0
230
1.0
  2
SOLID
 70
     1
 71
     0
 91
        1
 92
        1
 93
        4
 72
     1
 10
124.5569105048851
 20
121.9339870571901
 11
128.1594468538108
 21
120.6579236894536
 72
     1
 10
128.1594468538108
 20
120.6579236894536
 11
127.0146416240623
 21
117.4257351051922
 72
     1
 10
127.0146416240623
 20
117.4257351051922
 11
123.4124497846851
 21
118.7016262181545
 72
     1
 10
123.4124497846851
 20
118.7016262181545
 11
124.5569105048851
 21
121.9339870571901
 97
        0
 75
     2
 76
     1
 98
        0
  0
POLYLINE
  5
F3
330
1F
100
AcDbEntity
  8
Talot
 62
   179
420
  1907995
370
   211
100
AcDb2dPolyline
 66
     1
 10
0.0
 20
0.0
 30
0.0
  0
VERTEX
  5
F4
330
F3
100
AcDbEntity
  8
Talot
 62
   179
420
  1907995
370
   211
100
AcDbVertex
100
AcDb2dVertex
 10
136.7473808794416
 20
155.751388849951
 30
0.0
  0
VERTEX
  5
F5
330
F3
100
AcDbEntity
  8
Talot
 62
   179
420
  1907995
370
   211
100
AcDbVertex
100
AcDb2dVertex
 10
139.9807752471229
 20
150.6853759388912
 30
0.0
  0
VERTEX
  5
F6
330
F3
100
AcDbEntity
  8
Talot
 62
   179
420
  1907995
370
   211
100
AcDbVertex
100
AcDb2dVertex
 10
137.0903401349983
 20
148.8405273065399
 30
0.0
  0
VERTEX
  5
F7
330
F3
100
AcDbEntity
  8
Talot
 62
   179
420
  1907995
370
   211
100
AcDbVertex
100
AcDb2dVertex
 10
133.8572902768655
 20
153.906023453277
 30
0.0
  0
VERTEX
  5
F8
330
F3
100
AcDbEntity
  8
Talot
 62
   179
420
  1907995
370
   211
100
AcDbVertex
100
AcDb2dVertex
 10
136.7473808794416
 20
155.751388849951
 30
0.0
  0
SEQEND
  5
F9
330
F3
100
AcDbEntity
  8
Talot
370
   211
  0
HATCH
  5
FA
330
1F
100
AcDbEntity
  8
Talot
 62
   179
420
  1907995
100
AcDbHatch
 10
0.0
 20
0.0
 30
0.0
210
0.0
220
0.0
230
1.0
  2
SOLID
 70
     1
 71
     0
 91
        1
 92
        1
 93
        4
 72
     1
 10
136.7473808794416
 20
155.751388849951
 11
139.9807752471229
 21
150.6853759388912
 72
     1
 10
139.9807752471229
 20
150.6853759388912
 11
137.0903401349983
 21
148.8405273065399
 72
     1
 10
137.0903401349983
 20
148.8405273065399
 11
133.8572902768655
 21
153.906023453277
 72
     1
 10
133.8572902768655
 20
153.906023453277
 11
136.7473808794416
 21
155.751388849951
 97
        0
 75
     2
 76
     1
 98
        0
  0
POLYLINE
  5
FB
330
1F
100
AcDbEntity
  8
Talot
 62
   179
420
  1907995
370
   211
100
AcDb2dPolyline
 66
     1
 10
0.0
 20
0.0
 30
0.0
  0
VERTEX
  5
FC
330
FB
100
AcDbEntity
  8
Talot
 62
   179
420
  1907995
370
   211
100
AcDbVertex
100
AcDb2dVertex
 10
153.4300835119897
 20
124.7503526163819
 30
0.0
  0
VERTEX
  5
FD
330
FB
100
AcDbEntity
  8
Talot
 62
   179
420
  1907995
370
   211
100
AcDbVertex
100
AcDb2dVertex
 10
156.6636501344452
 20
119.684339705322
 30
0.0
  0
VERTEX
  5
FE
330
FB
100
AcDbEntity
  8
Talot
 62
   179
420
  1907995
370
   211
100
AcDbVertex
100
AcDb2dVertex
 10
153.7732150223206
 20
117.8394910729707
 30
0.0
  0
VERTEX
  5
FF
330
FB
100
AcDbEntity
  8
Talot
 62
   179
420
  1907995
370
   211
100
AcDbVertex
100
AcDb2dVertex
 10
150.5399929094136
 20
122.9049872197078
 30
0.0
  0
VERTEX
  5
100
330
FB
100
AcDbEntity
  8
Talot
 62
   179
420
  1907995
370
   211
100
AcDbVertex
100
AcDb2dVertex
 10
153.4300835119897
 20
124.7503526163819
 30
0.0
  0
SEQEND
  5
101
330
FB
100
AcDbEntity
  8
Talot
370
   211
  0
HATCH
  5
102
330
1F
100
AcDbEntity
  8
Talot
 62
   179
420
  1907995
100
AcDbHatch
 10
0.0
 20
0.0
 30
0.0
210
0.0
220
0.0
230
1.0
  2
SOLID
 70
     1
 71
     0
 91
        1
 92
        1
 93
        4
 72
     1
 10
153.4300835119897
 20
124.7503526163819
 11
156.6636501344452
 21
119.684339705322
 72
     1
 10
156.6636501344452
 20
119.684339705322
 11
153.7732150223206
 21
117.8394910729707
 72
     1
 10
153.7732150223206
 20
117.8394910729707
 11
150.5399929094136
 21
122.9049872197078
 72
     1
 10
150.5399929094136
 20
122.9049872197078
 11
153.4300835119897
 21
124.7503526163819
 97
        0
 75
     2
 76
     1
 98
        0
  0
POLYLINE
  5
103
330
1F
100
AcDbEntity
  8
Talot
 62
   179
420
  1907995
370
   211
100
AcDb2dPolyline
 66
     1
 10
0.0
 20
0.0
 30
0.0
  0
VERTEX
  5
104
330
103
100
AcDbEntity
  8
Talot
 62
   179
420
  1907995
370
   211
100
AcDbVertex
100
AcDb2dVertex
 10
158.9422362883894
 20
136.1115885076388
 30
0.0
  0
VERTEX
  5
105
330
103
100
AcDbEntity
  8
Talot
 62
   179
420
  1907995
370
   211
100
AcDbVertex
100
AcDb2dVertex
 10
162.1758029108449
 20
131.0455755965789
 30
0.0
  0
VERTEX
  5
106
330
103
100
AcDbEntity
  8
Talot
 62
   179
420
  1907995
370
   211
100
AcDbVertex
100
AcDb2dVertex
 10
159.2850232891718
 20
129.2007269642276
 30
0.0
  0
VERTEX
  5
107
330
103
100
AcDbEntity
  8
Talot
 62
   179
420
  1907995
370
   211
100
AcDbVertex
100
AcDb2dVertex
 10
156.0521456858134
 20
134.2662231109647
 30
0.0
  0
VERTEX
  5
108
330
103
100
AcDbEntity
  8
Talot
 62
   179
420
  1907995
370
   211
100
AcDbVertex
100
AcDb2dVertex
 10
158.9422362883894
 20
136.1115885076388
 30
0.0
  0
SEQEND
  5
109
330
103
100
AcDbEntity
  8
Talot
370
   211
  0
HATCH
  5
10A
330
1F
100
AcDbEntity
  8
Talot
 62
   179
420
  1907995
100
AcDbHatch
 10
0.0
 20
0.0
 30
0.0
210
0.0
220
0.0
230
1.0
  2
SOLID
 70
     1
 71
     0
 91
        1
 92
        1
 93
        4
 72
     1
 10
158.9422362883894
 20
136.1115885076388
 11
162.1758029108449
 21
131.0455755965789
 72
     1
 10
162.1758029108449
 20
131.0455755965789
 11
159.2850232891718
 21
129.2007269642276
 72
     1
 10
159.2850232891718
 20
129.2007269642276
 11
156.0521456858134
 21
134.2662231109647
 72
     1
 10
156.0521456858134
 20
134.2662231109647
 11
158.9422362883894
 21
136.1115885076388
 97
        0
 75
     2
 76
     1
 98
        0
  0
POLYLINE
  5
10B
330
1F
100
AcDbEntity
  8
Talot
 62
   179
420
  1907995
370
   211
100
AcDb2dPolyline
 66
     1
 10
0.0
 20
0.0
 30
0.0
  0
VERTEX
  5
10C
330
10B
100
AcDbEntity
  8
Talot
 62
   179
420
  1907995
370
   211
100
AcDbVertex
100
AcDb2dVertex
 10
139.2988185958177
 20
130.4309705620103
 30
0.0
  0
VERTEX
  5
10D
330
10B
100
AcDbEntity
  8
Talot
 62
   179
420
  1907995
370
   211
100
AcDbVertex
100
AcDb2dVertex
 10
142.5323852182732
 20
125.3649576509504
 30
0.0
  0
VERTEX
  5
10E
330
10B
100
AcDbEntity
  8
Talot
 62
   179
420
  1907995
370
   211
100
AcDbVertex
100
AcDb2dVertex
 10
139.6419501061486
 20
123.5201090185991
 30
0.0
  0
VERTEX
  5
10F
330
10B
100
AcDbEntity
  8
Talot
 62
   179
420
  1907995
370
   211
100
AcDbVertex
100
AcDb2dVertex
 10
136.4087279932416
 20
128.5856051653362
 30
0.0
  0
VERTEX
  5
110
330
10B
100
AcDbEntity
  8
Talot
 62
   179
420
  1907995
370
   211
100
AcDbVertex
100
AcDb2dVertex
 10
139.2988185958177
 20
130.4309705620103
 30
0.0
  0
SEQEND
  5
111
330
10B
100
AcDbEntity
  8
Talot
370
   211
  0
HATCH
  5
112
330
1F
100
AcDbEntity
  8
Talot
 62
   179
420
  1907995
100
AcDbHatch
 10
0.0
 20
0.0
 30
0.0
210
0.0
220
0.0
230
1.0
  2
SOLID
 70
     1
 71
     0
 91
        1
 92
        1
 93
        4
 72
     1
 10
139.2988185958177
 20
130.4309705620103
 11
142.5323852182732
 21
125.3649576509504
 72
     1
 10
142.5323852182732
 20
125.3649576509504
 11
139.6419501061486
 21
123.5201090185991
 72
     1
 10
139.6419501061486
 20
123.5201090185991
 11
136.4087279932416
 21
128.5856051653362
 72
     1
 10
136.4087279932416
 20
128.5856051653362
 11
139.2988185958177
 21
130.4309705620103
 97
        0
 75
     2
 76
     1
 98
        0
  0
POLYLINE
  5
113
330
1F
100
AcDbEntity
  8
Talot
 62
   179
420
  1907995
370
   211
100
AcDb2dPolyline
 66
     1
 10
0.0
 20
0.0
 30
0.0
  0
VERTEX
  5
114
330
113
100
AcDbEntity
  8
Talot
 62
   179
420
  1907995
370
   211
100
AcDbVertex
100
AcDb2dVertex
 10
144.8109713722174
 20
141.7922064532672
 30
0.0
  0
VERTEX
  5
115
330
113
100
AcDbEntity
  8
Talot
 62
   179
420
  1907995
370
   211
100
AcDbVertex
100
AcDb2dVertex
 10
148.0445379946729
 20
136.7261935422073
 30
0.0
  0
VERTEX
  5
116
330
113
100
AcDbEntity
  8
Talot
 62
   179
420
  1907995
370
   211
100
AcDbVertex
100
AcDb2dVertex
 10
145.1537583729998
 20
134.8813449098561
 30
0.0
  0
VERTEX
  5
117
330
113
100
AcDbEntity
  8
Talot
 62
   179
420
  1907995
370
   211
100
AcDbVertex
100
AcDb2dVertex
 10
141.9208807696413
 20
139.9468410565931
 30
0.0
  0
VERTEX
  5
118
330
113
100
AcDbEntity
  8
Talot
 62
   179
420
  1907995
370
   211
100
AcDbVertex
100
AcDb2dVertex
 10
144.8109713722174
 20
141.7922064532672
 30
0.0
  0
SEQEND
  5
119
330
113
100
AcDbEntity
  8
Talot
370
   211
  0
HATCH
  5
11A
330
1F
100
AcDbEntity
  8
Talot
 62
   179
420
  1907995
100
AcDbHatch
 10
0.0
 20
0.0
 30
0.0
210
0.0
220
0.0
230
1.0
  2
SOLID
 70
     1
 71
     0
 91
        1
 92
        1
 93
        4
 72
     1
 10
144.8109713722174
 20
141.7922064532672
 11
148.0445379946729
 21
136.7261935422073
 72
     1
 10
148.0445379946729
 20
136.7261935422073
 11
145.1537583729998
 21
134.8813449098561
 72
     1
 10
145.1537583729998
 20
134.8813449098561
 11
141.9208807696413
 21
139.9468410565931
 72
     1
 10
141.9208807696413
 20
139.9468410565931
 11
144.8109713722174
 21
141.7922064532672
 97
        0
 75
     2
 76
     1
 98
        0
  0
POLYLINE
  5
11B
330
1F
100
AcDbEntity
  8
Talot
 62
   179
420
  1907995
370
   211
100
AcDb2dPolyline
 66
     1
 10
0.0
 20
0.0
 30
0.0
  0
VERTEX
  5
11C
330
11B
100
AcDbEntity
  8
Talot
 62
   179
420
  1907995
370
   211
100
AcDbVertex
100
AcDb2dVertex
 10
127.7925441846317
 20
136.1115885076388
 30
0.0
  0
VERTEX
  5
11D
330
11B
100
AcDbEntity
  8
Talot
 62
   179
420
  1907995
370
   211
100
AcDbVertex
100
AcDb2dVertex
 10
131.0261108070872
 20
131.0455755965789
 30
0.0
  0
VERTEX
  5
11E
330
11B
100
AcDbEntity
  8
Talot
 62
   179
420
  1907995
370
   211
100
AcDbVertex
100
AcDb2dVertex
 10
128.1356756949626
 20
129.2007269642276
 30
0.0
  0
VERTEX
  5
11F
330
11B
100
AcDbEntity
  8
Talot
 62
   179
420
  1907995
370
   211
100
AcDbVertex
100
AcDb2dVertex
 10
124.9024535820556
 20
134.2662231109647
 30
0.0
  0
VERTEX
  5
120
330
11B
100
AcDbEntity
  8
Talot
 62
   179
420
  1907995
370
   211
100
AcDbVertex
100
AcDb2dVertex
 10
127.7925441846317
 20
136.1115885076388
 30
0.0
  0
SEQEND
  5
121
330
11B
100
AcDbEntity
  8
Talot
370
   211
  0
HATCH
  5
122
330
1F
100
AcDbEntity
  8
Talot
 62
   179
420
  1907995
100
AcDbHatch
 10
0.0
 20
0.0
 30
0.0
210
0.0
220
0.0
230
1.0
  2
SOLID
 70
     1
 71
     0
 91
        1
 92
        1
 93
        4
 72
     1
 10
127.7925441846317
 20
136.1115885076388
 11
131.0261108070872
 21
131.0455755965789
 72
     1
 10
131.0261108070872
 20
131.0455755965789
 11
128.1356756949626
 21
129.2007269642276
 72
     1
 10
128.1356756949626
 20
129.2007269642276
 11
124.9024535820556
 21
134.2662231109647
 72
     1
 10
124.9024535820556
 20
134.2662231109647
 11
127.7925441846317
 21
136.1115885076388
 97
        0
 75
     2
 76
     1
 98
        0
  0
POLYLINE
  5
123
330
1F
100
AcDbEntity
  8
Talot
 62
   179
420
  1907995
370
   211
100
AcDb2dPolyline
 66
     1
 10
0.0
 20
0.0
 30
0.0
  0
VERTEX
  5
124
330
123
100
AcDbEntity
  8
Talot
 62
   179
420
  1907995
370
   211
100
AcDbVertex
100
AcDb2dVertex
 10
133.3046969610315
 20
147.4728243988957
 30
0.0
  0
VERTEX
  5
125
330
123
100
AcDbEntity
  8
Talot
 62
   179
420
  1907995
370
   211
100
AcDbVertex
100
AcDb2dVertex
 10
136.538263583487
 20
142.4068114878358
 30
0.0
  0
VERTEX
  5
126
330
123
100
AcDbEntity
  8
Talot
 62
   179
420
  1907995
370
   211
100
AcDbVertex
100
AcDb2dVertex
 10
133.6474839618138
 20
140.5619628554845
 30
0.0
  0
VERTEX
  5
127
330
123
100
AcDbEntity
  8
Talot
 62
   179
420
  1907995
370
   211
100
AcDbVertex
100
AcDb2dVertex
 10
130.4146063584554
 20
145.6274590022216
 30
0.0
  0
VERTEX
  5
128
330
123
100
AcDbEntity
  8
Talot
 62
   179
420
  1907995
370
   211
100
AcDbVertex
100
AcDb2dVertex
 10
133.3046969610315
 20
147.4728243988957
 30
0.0
  0
SEQEND
  5
129
330
123
100
AcDbEntity
  8
Talot
370
   211
  0
HATCH
  5
12A
330
1F
100
AcDbEntity
  8
Talot
 62
   179
420
  1907995
100
AcDbHatch
 10
0.0
 20
0.0
 30
0.0
210
0.0
220
0.0
230
1.0
  2
SOLID
 70
     1
 71
     0
 91
        1
 92
        1
 93
        4
 72
     1
 10
133.3046969610315
 20
147.4728243988957
 11
136.538263583487
 21
142.4068114878358
 72
     1
 10
136.538263583487
 20
142.4068114878358
 11
133.6474839618138
 21
140.5619628554845
 72
     1
 10
133.6474839618138
 20
140.5619628554845
 11
130.4146063584554
 21
145.6274590022216
 72
     1
 10
130.4146063584554
 20
145.6274590022216
 11
133.3046969610315
 21
147.4728243988957
 97
        0
 75
     2
 76
     1
 98
        0
  0
POLYLINE
  5
12B
330
1F
100
AcDbEntity
  8
Talot
 62
   179
420
  1907995
370
   211
100
AcDb2dPolyline
 66
     1
 10
0.0
 20
0.0
 30
0.0
  0
VERTEX
  5
12C
330
12B
100
AcDbEntity
  8
Talot
 62
   179
420
  1907995
370
   211
100
AcDbVertex
100
AcDb2dVertex
 10
149.8585530224312
 20
154.2052299961709
 30
0.0
  0
VERTEX
  5
12D
330
12B
100
AcDbEntity
  8
Talot
 62
   179
420
  1907995
370
   211
100
AcDbVertex
100
AcDb2dVertex
 10
153.0921196448867
 20
149.139217085111
 30
0.0
  0
VERTEX
  5
12E
330
12B
100
AcDbEntity
  8
Talot
 62
   179
420
  1907995
370
   211
100
AcDbVertex
100
AcDb2dVertex
 10
150.2013400232136
 20
147.2943684527598
 30
0.0
  0
VERTEX
  5
12F
330
12B
100
AcDbEntity
  8
Talot
 62
   179
420
  1907995
370
   211
100
AcDbVertex
100
AcDb2dVertex
 10
146.9684624198551
 20
152.3598645994969
 30
0.0
  0
VERTEX
  5
130
330
12B
100
AcDbEntity
  8
Talot
 62
   179
420
  1907995
370
   211
100
AcDbVertex
100
AcDb2dVertex
 10
149.8585530224312
 20
154.2052299961709
 30
0.0
  0
SEQEND
  5
131
330
12B
100
AcDbEntity
  8
Talot
370
   211
  0
HATCH
  5
132
330
1F
100
AcDbEntity
  8
Talot
 62
   179
420
  1907995
100
AcDbHatch
 10
0.0
 20
0.0
 30
0.0
210
0.0
220
0.0
230
1.0
  2
SOLID
 70
     1
 71
     0
 91
        1
 92
        1
 93
        4
 72
     1
 10
149.8585530224312
 20
154.2052299961709
 11
153.0921196448867
 21
149.139217085111
 72
     1
 10
153.0921196448867
 20
149.139217085111
 11
150.2013400232136
 21
147.2943684527598
 72
     1
 10
150.2013400232136
 20
147.2943684527598
 11
146.9684624198551
 21
152.3598645994969
 72
     1
 10
146.9684624198551
 20
152.3598645994969
 11
149.8585530224312
 21
154.2052299961709
 97
        0
 75
     2
 76
     1
 98
        0
  0
POLYLINE
  5
133
330
1F
100
AcDbEntity
  8
Talot
 62
   179
420
  1907995
370
   211
100
AcDb2dPolyline
 66
     1
 10
0.0
 20
0.0
 30
0.0
  0
VERTEX
  5
134
330
133
100
AcDbEntity
  8
Talot
 62
   179
420
  1907995
370
   211
100
AcDbVertex
100
AcDb2dVertex
 10
138.3522786112453
 20
159.8858479417994
 30
0.0
  0
VERTEX
  5
135
330
133
100
AcDbEntity
  8
Talot
 62
   179
420
  1907995
370
   211
100
AcDbVertex
100
AcDb2dVertex
 10
141.5858452337008
 20
154.8198350307395
 30
0.0
  0
VERTEX
  5
136
330
133
100
AcDbEntity
  8
Talot
 62
   179
420
  1907995
370
   211
100
AcDbVertex
100
AcDb2dVertex
 10
138.6950656120276
 20
152.9749863983882
 30
0.0
  0
VERTEX
  5
137
330
133
100
AcDbEntity
  8
Talot
 62
   179
420
  1907995
370
   211
100
AcDbVertex
100
AcDb2dVertex
 10
135.4621880086692
 20
158.0404825451253
 30
0.0
  0
VERTEX
  5
138
330
133
100
AcDbEntity
  8
Talot
 62
   179
420
  1907995
370
   211
100
AcDbVertex
100
AcDb2dVertex
 10
138.3522786112453
 20
159.8858479417994
 30
0.0
  0
SEQEND
  5
139
330
133
100
AcDbEntity
  8
Talot
370
   211
  0
HATCH
  5
13A
330
1F
100
AcDbEntity
  8
Talot
 62
   179
420
  1907995
100
AcDbHatch
 10
0.0
 20
0.0
 30
0.0
210
0.0
220
0.0
230
1.0
  2
SOLID
 70
     1
 71
     0
 91
        1
 92
        1
 93
        4
 72
     1
 10
138.3522786112453
 20
159.8858479417994
 11
141.5858452337008
 21
154.8198350307395
 72
     1
 10
141.5858452337008
 20
154.8198350307395
 11
138.6950656120276
 21
152.9749863983882
 72
     1
 10
138.6950656120276
 20
152.9749863983882
 11
135.4621880086692
 21
158.0404825451253
 72
     1
 10
135.4621880086692
 20
158.0404825451253
 11
138.3522786112453
 21
159.8858479417994
 97
        0
 75
     2
 76
     1
 98
        0
  0
POLYLINE
  5
13B
330
1F
100
AcDbEntity
  8
Talot
 62
   179
420
  1907995
370
   211
100
AcDb2dPolyline
 66
     1
 10
0.0
 20
0.0
 30
0.0
  0
VERTEX
  5
13C
330
13B
100
AcDbEntity
  8
Talot
 62
   179
420
  1907995
370
   211
100
AcDbVertex
100
AcDb2dVertex
 10
182.2369384310033
 20
184.3024454291848
 30
0.0
  0
VERTEX
  5
13D
330
13B
100
AcDbEntity
  8
Talot
 62
   179
420
  1907995
370
   211
100
AcDbVertex
100
AcDb2dVertex
 10
185.4705050534588
 20
179.2364325181249
 30
0.0
  0
VERTEX
  5
13E
330
13B
100
AcDbEntity
  8
Talot
 62
   179
420
  1907995
370
   211
100
AcDbVertex
100
AcDb2dVertex
 10
182.5797254317856
 20
177.3915838857736
 30
0.0
  0
VERTEX
  5
13F
330
13B
100
AcDbEntity
  8
Talot
 62
   179
420
  1907995
370
   211
100
AcDbVertex
100
AcDb2dVertex
 10
179.3468478284272
 20
182.4570800325107
 30
0.0
  0
VERTEX
  5
140
330
13B
100
AcDbEntity
  8
Talot
 62
   179
420
  1907995
370
   211
100
AcDbVertex
100
AcDb2dVertex
 10
182.2369384310033
 20
184.3024454291848
 30
0.0
  0
SEQEND
  5
141
330
13B
100
AcDbEntity
  8
Talot
370
   211
  0
HATCH
  5
142
330
1F
100
AcDbEntity
  8
Talot
 62
   179
420
  1907995
100
AcDbHatch
 10
0.0
 20
0.0
 30
0.0
210
0.0
220
0.0
230
1.0
  2
SOLID
 70
     1
 71
     0
 91
        1
 92
        1
 93
        4
 72
     1
 10
182.2369384310033
 20
184.3024454291848
 11
185.4705050534588
 21
179.2364325181249
 72
     1
 10
185.4705050534588
 20
179.2364325181249
 11
182.5797254317856
 21
177.3915838857736
 72
     1
 10
182.5797254317856
 20
177.3915838857736
 11
179.3468478284272
 21
182.4570800325107
 72
     1
 10
179.3468478284272
 20
182.4570800325107
 11
182.2369384310033
 21
184.3024454291848
 97
        0
 75
     2
 76
     1
 98
        0
  0
POLYLINE
  5
143
330
1F
100
AcDbEntity
  8
Talot
 62
   179
420
  1907995
370
   211
100
AcDb2dPolyline
 66
     1
 10
0.0
 20
0.0
 30
0.0
  0
VERTEX
  5
144
330
143
100
AcDbEntity
  8
Talot
 62
   179
420
  1907995
370
   211
100
AcDbVertex
100
AcDb2dVertex
 10
168.7679931218705
 20
188.3952188656616
 30
0.0
  0
VERTEX
  5
145
330
143
100
AcDbEntity
  8
Talot
 62
   179
420
  1907995
370
   211
100
AcDbVertex
100
AcDb2dVertex
 10
172.001559744326
 20
183.3292059546017
 30
0.0
  0
VERTEX
  5
146
330
143
100
AcDbEntity
  8
Talot
 62
   179
420
  1907995
370
   211
100
AcDbVertex
100
AcDb2dVertex
 10
169.1107801226529
 20
181.4843573222504
 30
0.0
  0
VERTEX
  5
147
330
143
100
AcDbEntity
  8
Talot
 62
   179
420
  1907995
370
   211
100
AcDbVertex
100
AcDb2dVertex
 10
165.8779025192944
 20
186.5498534689875
 30
0.0
  0
VERTEX
  5
148
330
143
100
AcDbEntity
  8
Talot
 62
   179
420
  1907995
370
   211
100
AcDbVertex
100
AcDb2dVertex
 10
168.7679931218705
 20
188.3952188656616
 30
0.0
  0
SEQEND
  5
149
330
143
100
AcDbEntity
  8
Talot
370
   211
  0
HATCH
  5
14A
330
1F
100
AcDbEntity
  8
Talot
 62
   179
420
  1907995
100
AcDbHatch
 10
0.0
 20
0.0
 30
0.0
210
0.0
220
0.0
230
1.0
  2
SOLID
 70
     1
 71
     0
 91
        1
 92
        1
 93
        4
 72
     1
 10
168.7679931218705
 20
188.3952188656616
 11
172.001559744326
 21
183.3292059546017
 72
     1
 10
172.001559744326
 20
183.3292059546017
 11
169.1107801226529
 21
181.4843573222504
 72
     1
 10
169.1107801226529
 20
181.4843573222504
 11
165.8779025192944
 21
186.5498534689875
 72
     1
 10
165.8779025192944
 20
186.5498534689875
 11
168.7679931218705
 21
188.3952188656616
 97
        0
 75
     2
 76
     1
 98
        0
  0
POLYLINE
  5
14B
330
1F
100
AcDbEntity
  8
Talot
 62
   179
420
  1907995
370
   211
100
AcDb2dPolyline
 66
     1
 10
0.0
 20
0.0
 30
0.0
  0
VERTEX
  5
14C
330
14B
100
AcDbEntity
  8
Talot
 62
   179
420
  1907995
370
   211
100
AcDbVertex
100
AcDb2dVertex
 10
157.032964370464
 20
183.0193196157035
 30
0.0
  0
VERTEX
  5
14D
330
14B
100
AcDbEntity
  8
Talot
 62
   179
420
  1907995
370
   211
100
AcDbVertex
100
AcDb2dVertex
 10
160.2665309929195
 20
177.9533067046436
 30
0.0
  0
VERTEX
  5
14E
330
14B
100
AcDbEntity
  8
Talot
 62
   179
420
  1907995
370
   211
100
AcDbVertex
100
AcDb2dVertex
 10
157.3757513712463
 20
176.1084580722923
 30
0.0
  0
VERTEX
  5
14F
330
14B
100
AcDbEntity
  8
Talot
 62
   179
420
  1907995
370
   211
100
AcDbVertex
100
AcDb2dVertex
 10
154.1428737678879
 20
181.1739542190294
 30
0.0
  0
VERTEX
  5
150
330
14B
100
AcDbEntity
  8
Talot
 62
   179
420
  1907995
370
   211
100
AcDbVertex
100
AcDb2dVertex
 10
157.032964370464
 20
183.0193196157035
 30
0.0
  0
SEQEND
  5
151
330
14B
100
AcDbEntity
  8
Talot
370
   211
  0
HATCH
  5
152
330
1F
100
AcDbEntity
  8
Talot
 62
   179
420
  1907995
100
AcDbHatch
 10
0.0
 20
0.0
 30
0.0
210
0.0
220
0.0
230
1.0
  2
SOLID
 70
     1
 71
     0
 91
        1
 92
        1
 93
        4
 72
     1
 10
157.032964370464
 20
183.0193196157035
 11
160.2665309929195
 21
177.9533067046436
 72
     1
 10
160.2665309929195
 20
177.9533067046436
 11
157.3757513712463
 21
176.1084580722923
 72
     1
 10
157.3757513712463
 20
176.1084580722923
 11
154.1428737678879
 21
181.1739542190294
 72
     1
 10
154.1428737678879
 20
181.1739542190294
 11
157.032964370464
 21
183.0193196157035
 97
        0
 75
     2
 76
     1
 98
        0
  0
POLYLINE
  5
153
330
1F
100
AcDbEntity
  8
Talot
 62
   179
420
  1907995
370
   211
100
AcDb2dPolyline
 66
     1
 10
0.0
 20
0.0
 30
0.0
  0
VERTEX
  5
154
330
153
100
AcDbEntity
  8
Talot
 62
   179
420
  1907995
370
   211
100
AcDbVertex
100
AcDb2dVertex
 10
158.9422362883894
 20
197.8654418450649
 30
0.0
  0
VERTEX
  5
155
330
153
100
AcDbEntity
  8
Talot
 62
   179
420
  1907995
370
   211
100
AcDbVertex
100
AcDb2dVertex
 10
162.1758029108449
 20
192.799428934005
 30
0.0
  0
VERTEX
  5
156
330
153
100
AcDbEntity
  8
Talot
 62
   179
420
  1907995
370
   211
100
AcDbVertex
100
AcDb2dVertex
 10
159.2850232891718
 20
190.9545803016537
 30
0.0
  0
VERTEX
  5
157
330
153
100
AcDbEntity
  8
Talot
 62
   179
420
  1907995
370
   211
100
AcDbVertex
100
AcDb2dVertex
 10
156.0521456858134
 20
196.0200764483908
 30
0.0
  0
VERTEX
  5
158
330
153
100
AcDbEntity
  8
Talot
 62
   179
420
  1907995
370
   211
100
AcDbVertex
100
AcDb2dVertex
 10
158.9422362883894
 20
197.8654418450649
 30
0.0
  0
SEQEND
  5
159
330
153
100
AcDbEntity
  8
Talot
370
   211
  0
HATCH
  5
15A
330
1F
100
AcDbEntity
  8
Talot
 62
   179
420
  1907995
100
AcDbHatch
 10
0.0
 20
0.0
 30
0.0
210
0.0
220
0.0
230
1.0
  2
SOLID
 70
     1
 71
     0
 91
        1
 92
        1
 93
        4
 72
     1
 10
158.9422362883894
 20
197.8654418450649
 11
162.1758029108449
 21
192.799428934005
 72
     1
 10
162.1758029108449
 20
192.799428934005
 11
159.2850232891718
 21
190.9545803016537
 72
     1
 10
159.2850232891718
 20
190.9545803016537
 11
156.0521456858134
 21
196.0200764483908
 72
     1
 10
156.0521456858134
 20
196.0200764483908
 11
158.9422362883894
 21
197.8654418450649
 97
        0
 75
     2
 76
     1
 98
        0
  0
POLYLINE
  5
15B
330
1F
100
AcDbEntity
  8
Talot
 62
   179
420
  1907995
370
   211
100
AcDb2dPolyline
 66
     1
 10
0.0
 20
0.0
 30
0.0
  0
VERTEX
  5
15C
330
15B
100
AcDbEntity
  8
Talot
 62
   179
420
  1907995
370
   211
100
AcDbVertex
100
AcDb2dVertex
 10
165.706336764129
 20
210.4798312190814
 30
0.0
  0
VERTEX
  5
15D
330
15B
100
AcDbEntity
  8
Talot
 62
   179
420
  1907995
370
   211
100
AcDbVertex
100
AcDb2dVertex
 10
168.9399033865845
 20
205.4138183080215
 30
0.0
  0
VERTEX
  5
15E
330
15B
100
AcDbEntity
  8
Talot
 62
   179
420
  1907995
370
   211
100
AcDbVertex
100
AcDb2dVertex
 10
166.0491237649113
 20
203.5689696756703
 30
0.0
  0
VERTEX
  5
15F
330
15B
100
AcDbEntity
  8
Talot
 62
   179
420
  1907995
370
   211
100
AcDbVertex
100
AcDb2dVertex
 10
162.8162461615529
 20
208.6344658224074
 30
0.0
  0
VERTEX
  5
160
330
15B
100
AcDbEntity
  8
Talot
 62
   179
420
  1907995
370
   211
100
AcDbVertex
100
AcDb2dVertex
 10
165.706336764129
 20
210.4798312190814
 30
0.0
  0
SEQEND
  5
161
330
15B
100
AcDbEntity
  8
Talot
370
   211
  0
HATCH
  5
162
330
1F
100
AcDbEntity
  8
Talot
 62
   179
420
  1907995
100
AcDbHatch
 10
0.0
 20
0.0
 30
0.0
210
0.0
220
0.0
230
1.0
  2
SOLID
 70
     1
 71
     0
 91
        1
 92
        1
 93
        4
 72
     1
 10
165.706336764129
 20
210.4798312190814
 11
168.9399033865845
 21
205.4138183080215
 72
     1
 10
168.9399033865845
 20
205.4138183080215
 11
166.0491237649113
 21
203.5689696756703
 72
     1
 10
166.0491237649113
 20
203.5689696756703
 11
162.8162461615529
 21
208.6344658224074
 72
     1
 10
162.8162461615529
 20
208.6344658224074
 11
165.706336764129
 21
210.4798312190814
 97
        0
 75
     2
 76
     1
 98
        0
  0
POLYLINE
  5
163
330
1F
100
AcDbEntity
  8
Talot
 62
   179
420
  1907995
370
   211
100
AcDb2dPolyline
 66
     1
 10
0.0
 20
0.0
 30
0.0
  0
VERTEX
  5
164
330
163
100
AcDbEntity
  8
Talot
 62
   179
420
  1907995
370
   211
100
AcDbVertex
100
AcDb2dVertex
 10
174.6394693573818
 20
221.8248751615577
 30
0.0
  0
VERTEX
  5
165
330
163
100
AcDbEntity
  8
Talot
 62
   179
420
  1907995
370
   211
100
AcDbVertex
100
AcDb2dVertex
 10
177.8730359798373
 20
216.7588622504978
 30
0.0
  0
VERTEX
  5
166
330
163
100
AcDbEntity
  8
Talot
 62
   179
420
  1907995
370
   211
100
AcDbVertex
100
AcDb2dVertex
 10
174.9822563581642
 20
214.9140136181465
 30
0.0
  0
VERTEX
  5
167
330
163
100
AcDbEntity
  8
Talot
 62
   179
420
  1907995
370
   211
100
AcDbVertex
100
AcDb2dVertex
 10
171.7493787548057
 20
219.9795097648836
 30
0.0
  0
VERTEX
  5
168
330
163
100
AcDbEntity
  8
Talot
 62
   179
420
  1907995
370
   211
100
AcDbVertex
100
AcDb2dVertex
 10
174.6394693573818
 20
221.8248751615577
 30
0.0
  0
SEQEND
  5
169
330
163
100
AcDbEntity
  8
Talot
370
   211
  0
HATCH
  5
16A
330
1F
100
AcDbEntity
  8
Talot
 62
   179
420
  1907995
100
AcDbHatch
 10
0.0
 20
0.0
 30
0.0
210
0.0
220
0.0
230
1.0
  2
SOLID
 70
     1
 71
     0
 91
        1
 92
        1
 93
        4
 72
     1
 10
174.6394693573818
 20
221.8248751615577
 11
177.8730359798373
 21
216.7588622504978
 72
     1
 10
177.8730359798373
 20
216.7588622504978
 11
174.9822563581642
 21
214.9140136181465
 72
     1
 10
174.9822563581642
 20
214.9140136181465
 11
171.7493787548057
 21
219.9795097648836
 72
     1
 10
171.7493787548057
 20
219.9795097648836
 11
174.6394693573818
 21
221.8248751615577
 97
        0
 75
     2
 76
     1
 98
        0
  0
POLYLINE
  5
16B
330
1F
100
AcDbEntity
  8
Talot
 62
   179
420
  1907995
370
   211
100
AcDb2dPolyline
 66
     1
 10
0.0
 20
0.0
 30
0.0
  0
VERTEX
  5
16C
330
16B
100
AcDbEntity
  8
Talot
 62
   179
420
  1907995
370
   211
100
AcDbVertex
100
AcDb2dVertex
 10
172.5407171877676
 20
239.4971814722438
 30
0.0
  0
VERTEX
  5
16D
330
16B
100
AcDbEntity
  8
Talot
 62
   179
420
  1907995
370
   211
100
AcDbVertex
100
AcDb2dVertex
 10
175.7742838102231
 20
234.4311685611839
 30
0.0
  0
VERTEX
  5
16E
330
16B
100
AcDbEntity
  8
Talot
 62
   179
420
  1907995
370
   211
100
AcDbVertex
100
AcDb2dVertex
 10
172.88350418855
 20
232.5863199288326
 30
0.0
  0
VERTEX
  5
16F
330
16B
100
AcDbEntity
  8
Talot
 62
   179
420
  1907995
370
   211
100
AcDbVertex
100
AcDb2dVertex
 10
169.6506265851915
 20
237.6518160755697
 30
0.0
  0
VERTEX
  5
170
330
16B
100
AcDbEntity
  8
Talot
 62
   179
420
  1907995
370
   211
100
AcDbVertex
100
AcDb2dVertex
 10
172.5407171877676
 20
239.4971814722438
 30
0.0
  0
SEQEND
  5
171
330
16B
100
AcDbEntity
  8
Talot
370
   211
  0
HATCH
  5
172
330
1F
100
AcDbEntity
  8
Talot
 62
   179
420
  1907995
100
AcDbHatch
 10
0.0
 20
0.0
 30
0.0
210
0.0
220
0.0
230
1.0
  2
SOLID
 70
     1
 71
     0
 91
        1
 92
        1
 93
        4
 72
     1
 10
172.5407171877676
 20
239.4971814722438
 11
175.7742838102231
 21
234.4311685611839
 72
     1
 10
175.7742838102231
 20
234.4311685611839
 11
172.88350418855
 21
232.5863199288326
 72
     1
 10
172.88350418855
 20
232.5863199288326
 11
169.6506265851915
 21
237.6518160755697
 72
     1
 10
169.6506265851915
 20
237.6518160755697
 11
172.5407171877676
 21
239.4971814722438
 97
        0
 75
     2
 76
     1
 98
        0
  0
POLYLINE
  5
173
330
1F
100
AcDbEntity
  8
Talot
 62
   179
420
  1907995
370
   211
100
AcDb2dPolyline
 66
     1
 10
0.0
 20
0.0
 30
0.0
  0
VERTEX
  5
174
330
173
100
AcDbEntity
  8
Talot
 62
   179
420
  1907995
370
   211
100
AcDbVertex
100
AcDb2dVertex
 10
185.2989392982933
 20
237.9382757651682
 30
0.0
  0
VERTEX
  5
175
330
173
100
AcDbEntity
  8
Talot
 62
   179
420
  1907995
370
   211
100
AcDbVertex
100
AcDb2dVertex
 10
188.5325059207488
 20
232.8722628541083
 30
0.0
  0
VERTEX
  5
176
330
173
100
AcDbEntity
  8
Talot
 62
   179
420
  1907995
370
   211
100
AcDbVertex
100
AcDb2dVertex
 10
185.6417262990757
 20
231.0274142217571
 30
0.0
  0
VERTEX
  5
177
330
173
100
AcDbEntity
  8
Talot
 62
   179
420
  1907995
370
   211
100
AcDbVertex
100
AcDb2dVertex
 10
182.4088486957172
 20
236.0929103684941
 30
0.0
  0
VERTEX
  5
178
330
173
100
AcDbEntity
  8
Talot
 62
   179
420
  1907995
370
   211
100
AcDbVertex
100
AcDb2dVertex
 10
185.2989392982933
 20
237.9382757651682
 30
0.0
  0
SEQEND
  5
179
330
173
100
AcDbEntity
  8
Talot
370
   211
  0
HATCH
  5
17A
330
1F
100
AcDbEntity
  8
Talot
 62
   179
420
  1907995
100
AcDbHatch
 10
0.0
 20
0.0
 30
0.0
210
0.0
220
0.0
230
1.0
  2
SOLID
 70
     1
 71
     0
 91
        1
 92
        1
 93
        4
 72
     1
 10
185.2989392982933
 20
237.9382757651682
 11
188.5325059207488
 21
232.8722628541083
 72
     1
 10
188.5325059207488
 20
232.8722628541083
 11
185.6417262990757
 21
231.0274142217571
 72
     1
 10
185.6417262990757
 20
231.0274142217571
 11
182.4088486957172
 21
236.0929103684941
 72
     1
 10
182.4088486957172
 20
236.0929103684941
 11
185.2989392982933
 21
237.9382757651682
 97
        0
 75
     2
 76
     1
 98
        0
  0
POLYLINE
  5
17B
330
1F
100
AcDbEntity
  8
Talot
 62
   179
420
  1907995
370
   211
100
AcDb2dPolyline
 66
     1
 10
0.0
 20
0.0
 30
0.0
  0
VERTEX
  5
17C
330
17B
100
AcDbEntity
  8
Talot
 62
   179
420
  1907995
370
   211
100
AcDbVertex
100
AcDb2dVertex
 10
148.3554578622167
 20
174.2772175671078
 30
0.0
  0
VERTEX
  5
17D
330
17B
100
AcDbEntity
  8
Talot
 62
   179
420
  1907995
370
   211
100
AcDbVertex
100
AcDb2dVertex
 10
151.5890244846722
 20
169.2112046560479
 30
0.0
  0
VERTEX
  5
17E
330
17B
100
AcDbEntity
  8
Talot
 62
   179
420
  1907995
370
   211
100
AcDbVertex
100
AcDb2dVertex
 10
148.698244862999
 20
167.3663560236966
 30
0.0
  0
VERTEX
  5
17F
330
17B
100
AcDbEntity
  8
Talot
 62
   179
420
  1907995
370
   211
100
AcDbVertex
100
AcDb2dVertex
 10
145.4653672596406
 20
172.4318521704337
 30
0.0
  0
VERTEX
  5
180
330
17B
100
AcDbEntity
  8
Talot
 62
   179
420
  1907995
370
   211
100
AcDbVertex
100
AcDb2dVertex
 10
148.3554578622167
 20
174.2772175671078
 30
0.0
  0
SEQEND
  5
181
330
17B
100
AcDbEntity
  8
Talot
370
   211
  0
HATCH
  5
182
330
1F
100
AcDbEntity
  8
Talot
 62
   179
420
  1907995
100
AcDbHatch
 10
0.0
 20
0.0
 30
0.0
210
0.0
220
0.0
230
1.0
  2
SOLID
 70
     1
 71
     0
 91
        1
 92
        1
 93
        4
 72
     1
 10
148.3554578622167
 20
174.2772175671078
 11
151.5890244846722
 21
169.2112046560479
 72
     1
 10
151.5890244846722
 20
169.2112046560479
 11
148.698244862999
 21
167.3663560236966
 72
     1
 10
148.698244862999
 20
167.3663560236966
 11
145.4653672596406
 21
172.4318521704337
 72
     1
 10
145.4653672596406
 20
172.4318521704337
 11
148.3554578622167
 21
174.2772175671078
 97
        0
 75
     2
 76
     1
 98
        0
  0
POLYLINE
  5
183
330
1F
100
AcDbEntity
  8
Talot
 62
   179
420
  1907995
370
   211
100
AcDb2dPolyline
 66
     1
 10
0.0
 20
0.0
 30
0.0
  0
VERTEX
  5
184
330
183
100
AcDbEntity
  8
Talot
 62
   179
420
  1907995
370
   211
100
AcDbVertex
100
AcDb2dVertex
 10
143.8382486619571
 20
101.1748751917202
 30
0.0
  0
VERTEX
  5
185
330
183
100
AcDbEntity
  8
Talot
 62
   179
420
  1907995
370
   211
100
AcDbVertex
100
AcDb2dVertex
 10
147.0718152844126
 20
96.10851777111176
 30
0.0
  0
VERTEX
  5
186
330
183
100
AcDbEntity
  8
Talot
 62
   179
420
  1907995
370
   211
100
AcDbVertex
100
AcDb2dVertex
 10
144.181380172288
 20
94.264013648309
 30
0.0
  0
VERTEX
  5
187
330
183
100
AcDbEntity
  8
Talot
 62
   179
420
  1907995
370
   211
100
AcDbVertex
100
AcDb2dVertex
 10
140.948158059381
 20
99.32933754027184
 30
0.0
  0
VERTEX
  5
188
330
183
100
AcDbEntity
  8
Talot
 62
   179
420
  1907995
370
   211
100
AcDbVertex
100
AcDb2dVertex
 10
143.8382486619571
 20
101.1748751917202
 30
0.0
  0
SEQEND
  5
189
330
183
100
AcDbEntity
  8
Talot
370
   211
  0
HATCH
  5
18A
330
1F
100
AcDbEntity
  8
Talot
 62
   179
420
  1907995
100
AcDbHatch
 10
0.0
 20
0.0
 30
0.0
210
0.0
220
0.0
230
1.0
  2
SOLID
 70
     1
 71
     0
 91
        1
 92
        1
 93
        4
 72
     1
 10
143.8382486619571
 20
101.1748751917202
 11
147.0718152844126
 21
96.10851777111176
 72
     1
 10
147.0718152844126
 20
96.10851777111176
 11
144.181380172288
 21
94.264013648309
 72
     1
 10
144.181380172288
 20
94.264013648309
 11
140.948158059381
 21
99.32933754027184
 72
     1
 10
140.948158059381
 20
99.32933754027184
 11
143.8382486619571
 21
101.1748751917202
 97
        0
 75
     2
 76
     1
 98
        0
  0
POLYLINE
  5
18B
330
1F
100
AcDbEntity
  8
Talot
 62
   179
420
  1907995
370
   211
100
AcDb2dPolyline
 66
     1
 10
0.0
 20
0.0
 30
0.0
  0
VERTEX
  5
18C
330
18B
100
AcDbEntity
  8
Talot
 62
   179
420
  1907995
370
   211
100
AcDbVertex
100
AcDb2dVertex
 10
149.3504014383568
 20
112.5359388282028
 30
0.0
  0
VERTEX
  5
18D
330
18B
100
AcDbEntity
  8
Talot
 62
   179
420
  1907995
370
   211
100
AcDbVertex
100
AcDb2dVertex
 10
152.5839680608123
 20
107.4699259171429
 30
0.0
  0
VERTEX
  5
18E
330
18B
100
AcDbEntity
  8
Talot
 62
   179
420
  1907995
370
   211
100
AcDbVertex
100
AcDb2dVertex
 10
149.6931884391392
 20
105.6250772847917
 30
0.0
  0
VERTEX
  5
18F
330
18B
100
AcDbEntity
  8
Talot
 62
   179
420
  1907995
370
   211
100
AcDbVertex
100
AcDb2dVertex
 10
146.4603108357808
 20
110.6905734315287
 30
0.0
  0
VERTEX
  5
190
330
18B
100
AcDbEntity
  8
Talot
 62
   179
420
  1907995
370
   211
100
AcDbVertex
100
AcDb2dVertex
 10
149.3504014383568
 20
112.5359388282028
 30
0.0
  0
SEQEND
  5
191
330
18B
100
AcDbEntity
  8
Talot
370
   211
  0
HATCH
  5
192
330
1F
100
AcDbEntity
  8
Talot
 62
   179
420
  1907995
100
AcDbHatch
 10
0.0
 20
0.0
 30
0.0
210
0.0
220
0.0
230
1.0
  2
SOLID
 70
     1
 71
     0
 91
        1
 92
        1
 93
        4
 72
     1
 10
149.3504014383568
 20
112.5359388282028
 11
152.5839680608123
 21
107.4699259171429
 72
     1
 10
152.5839680608123
 20
107.4699259171429
 11
149.6931884391392
 21
105.6250772847917
 72
     1
 10
149.6931884391392
 20
105.6250772847917
 11
146.4603108357808
 21
110.6905734315287
 72
     1
 10
146.4603108357808
 20
110.6905734315287
 11
149.3504014383568
 21
112.5359388282028
 97
        0
 75
     2
 76
     1
 98
        0
  0
POLYLINE
  5
193
330
1F
100
AcDbEntity
  8
Talot
 62
   179
420
  1907995
370
   211
100
AcDb2dPolyline
 66
     1
 10
0.0
 20
0.0
 30
0.0
  0
VERTEX
  5
194
330
193
100
AcDbEntity
  8
Talot
 62
   179
420
  1907995
370
   211
100
AcDbVertex
100
AcDb2dVertex
 10
133.480913595102
 20
77.64487302746379
 30
0.0
  0
VERTEX
  5
195
330
193
100
AcDbEntity
  8
Talot
 62
   179
420
  1907995
370
   211
100
AcDbVertex
100
AcDb2dVertex
 10
136.7144802175575
 20
72.57851560685538
 30
0.0
  0
VERTEX
  5
196
330
193
100
AcDbEntity
  8
Talot
 62
   179
420
  1907995
370
   211
100
AcDbVertex
100
AcDb2dVertex
 10
133.8240451054329
 20
70.73401148405262
 30
0.0
  0
VERTEX
  5
197
330
193
100
AcDbEntity
  8
Talot
 62
   179
420
  1907995
370
   211
100
AcDbVertex
100
AcDb2dVertex
 10
130.5908229925259
 20
75.79933537601545
 30
0.0
  0
VERTEX
  5
198
330
193
100
AcDbEntity
  8
Talot
 62
   179
420
  1907995
370
   211
100
AcDbVertex
100
AcDb2dVertex
 10
133.480913595102
 20
77.64487302746379
 30
0.0
  0
SEQEND
  5
199
330
193
100
AcDbEntity
  8
Talot
370
   211
  0
HATCH
  5
19A
330
1F
100
AcDbEntity
  8
Talot
 62
   179
420
  1907995
100
AcDbHatch
 10
0.0
 20
0.0
 30
0.0
210
0.0
220
0.0
230
1.0
  2
SOLID
 70
     1
 71
     0
 91
        1
 92
        1
 93
        4
 72
     1
 10
133.480913595102
 20
77.64487302746379
 11
136.7144802175575
 21
72.57851560685538
 72
     1
 10
136.7144802175575
 20
72.57851560685538
 11
133.8240451054329
 21
70.73401148405262
 72
     1
 10
133.8240451054329
 20
70.73401148405262
 11
130.5908229925259
 21
75.79933537601545
 72
     1
 10
130.5908229925259
 20
75.79933537601545
 11
133.480913595102
 21
77.64487302746379
 97
        0
 75
     2
 76
     1
 98
        0
  0
POLYLINE
  5
19B
330
1F
100
AcDbEntity
  8
Talot
 62
   179
420
  1907995
370
   211
100
AcDb2dPolyline
 66
     1
 10
0.0
 20
0.0
 30
0.0
  0
VERTEX
  5
19C
330
19B
100
AcDbEntity
  8
Talot
 62
   179
420
  1907995
370
   211
100
AcDbVertex
100
AcDb2dVertex
 10
138.9930663715017
 20
89.0061089187207
 30
0.0
  0
VERTEX
  5
19D
330
19B
100
AcDbEntity
  8
Talot
 62
   179
420
  1907995
370
   211
100
AcDbVertex
100
AcDb2dVertex
 10
142.2266329939572
 20
83.93975149811229
 30
0.0
  0
VERTEX
  5
19E
330
19B
100
AcDbEntity
  8
Talot
 62
   179
420
  1907995
370
   211
100
AcDbVertex
100
AcDb2dVertex
 10
139.3358533722841
 20
82.09524737530953
 30
0.0
  0
VERTEX
  5
19F
330
19B
100
AcDbEntity
  8
Talot
 62
   179
420
  1907995
370
   211
100
AcDbVertex
100
AcDb2dVertex
 10
136.1029757689257
 20
87.16057126727236
 30
0.0
  0
VERTEX
  5
1A0
330
19B
100
AcDbEntity
  8
Talot
 62
   179
420
  1907995
370
   211
100
AcDbVertex
100
AcDb2dVertex
 10
138.9930663715017
 20
89.0061089187207
 30
0.0
  0
SEQEND
  5
1A1
330
19B
100
AcDbEntity
  8
Talot
370
   211
  0
HATCH
  5
1A2
330
1F
100
AcDbEntity
  8
Talot
 62
   179
420
  1907995
100
AcDbHatch
 10
0.0
 20
0.0
 30
0.0
210
0.0
220
0.0
230
1.0
  2
SOLID
 70
     1
 71
     0
 91
        1
 92
        1
 93
        4
 72
     1
 10
138.9930663715017
 20
89.0061089187207
 11
142.2266329939572
 21
83.93975149811229
 72
     1
 10
142.2266329939572
 20
83.93975149811229
 11
139.3358533722841
 21
82.09524737530953
 72
     1
 10
139.3358533722841
 20
82.09524737530953
 11
136.1029757689257
 21
87.16057126727236
 72
     1
 10
136.1029757689257
 20
87.16057126727236
 11
138.9930663715017
 21
89.0061089187207
 97
        0
 75
     2
 76
     1
 98
        0
  0
POLYLINE
  5
1A3
330
1F
100
AcDbEntity
  8
Talot
 62
   179
420
  1907995
370
   211
100
AcDb2dPolyline
 66
     1
 10
0.0
 20
0.0
 30
0.0
  0
VERTEX
  5
1A4
330
1A3
100
AcDbEntity
  8
Talot
 62
   179
420
  1907995
370
   211
100
AcDbVertex
100
AcDb2dVertex
 10
162.1013888483635
 20
155.751388849951
 30
0.0
  0
VERTEX
  5
1A5
330
1A3
100
AcDbEntity
  8
Talot
 62
   179
420
  1907995
370
   211
100
AcDbVertex
100
AcDb2dVertex
 10
197.2027777284771
 20
146.2263888523323
 30
0.0
  0
VERTEX
  5
1A6
330
1A3
100
AcDbEntity
  8
Talot
 62
   179
420
  1907995
370
   211
100
AcDbVertex
100
AcDb2dVertex
 10
192.6166666185125
 20
135.8194444104896
 30
0.0
  0
VERTEX
  5
1A7
330
1A3
100
AcDbEntity
  8
Talot
 62
   179
420
  1907995
370
   211
100
AcDbVertex
100
AcDb2dVertex
 10
182.915277732049
 20
133.5263888555073
 30
0.0
  0
VERTEX
  5
1A8
330
1A3
100
AcDbEntity
  8
Talot
 62
   179
420
  1907995
370
   211
100
AcDbVertex
100
AcDb2dVertex
 10
181.5041666212906
 20
138.4652777431615
 30
0.0
  0
VERTEX
  5
1A9
330
1A3
100
AcDbEntity
  8
Talot
 62
   179
420
  1907995
370
   211
100
AcDbVertex
100
AcDb2dVertex
 10
189.3441704170737
 20
140.3552571263695
 30
0.0
  0
VERTEX
  5
1AA
330
1A3
100
AcDbEntity
  8
Talot
 62
   179
420
  1907995
370
   211
100
AcDbVertex
100
AcDb2dVertex
 10
188.2069443973927
 20
144.2861110750396
 30
0.0
  0
VERTEX
  5
1AB
330
1A3
100
AcDbEntity
  8
Talot
 62
   179
420
  1907995
370
   211
100
AcDbVertex
100
AcDb2dVertex
 10
160.6382567957779
 20
151.8708332953656
 30
0.0
  0
VERTEX
  5
1AC
330
1A3
100
AcDbEntity
  8
Talot
 62
   179
420
  1907995
370
   211
100
AcDbVertex
100
AcDb2dVertex
 10
162.1013888483635
 20
155.751388849951
 30
0.0
  0
SEQEND
  5
1AD
330
1A3
100
AcDbEntity
  8
Talot
370
   211
  0
HATCH
  5
1AE
330
1F
100
AcDbEntity
  8
Talot
 62
   179
420
  1907995
100
AcDbHatch
 10
0.0
 20
0.0
 30
0.0
210
0.0
220
0.0
230
1.0
  2
SOLID
 70
     1
 71
     0
 91
        1
 92
        1
 93
        8
 72
     1
 10
162.1013888483635
 20
155.751388849951
 11
197.2027777284771
 21
146.2263888523323
 72
     1
 10
197.2027777284771
 20
146.2263888523323
 11
192.6166666185125
 21
135.8194444104896
 72
     1
 10
192.6166666185125
 20
135.8194444104896
 11
182.915277732049
 21
133.5263888555073
 72
     1
 10
182.915277732049
 20
133.5263888555073
 11
181.5041666212906
 21
138.4652777431615
 72
     1
 10
181.5041666212906
 20
138.4652777431615
 11
189.3441704170737
 21
140.3552571263695
 72
     1
 10
189.3441704170737
 20
140.3552571263695
 11
188.2069443973927
 21
144.2861110750396
 72
     1
 10
188.2069443973927
 20
144.2861110750396
 11
160.6382567957779
 21
151.8708332953656
 72
     1
 10
160.6382567957779
 20
151.8708332953656
 11
162.1013888483635
 21
155.751388849951
 97
        0
 75
     2
 76
     1
 98
        0
  0
POLYLINE
  5
1AF
330
1F
100
AcDbEntity
  8
Talot
 62
   179
420
  1907995
370
   211
100
AcDb2dPolyline
 66
     1
 10
0.0
 20
0.0
 30
0.0
  0
VERTEX
  5
1B0
330
1AF
100
AcDbEntity
  8
Talot
 62
   179
420
  1907995
370
   211
100
AcDbVertex
100
AcDb2dVertex
 10
164.100577758454
 20
161.1607055261161
 30
0.0
  0
VERTEX
  5
1B1
330
1AF
100
AcDbEntity
  8
Talot
 62
   179
420
  1907995
370
   211
100
AcDbVertex
100
AcDb2dVertex
 10
199.5895398806582
 20
151.830353423414
 30
0.0
  0
VERTEX
  5
1B2
330
1AF
100
AcDbEntity
  8
Talot
 62
   179
420
  1907995
370
   211
100
AcDbVertex
100
AcDb2dVertex
 10
209.9027777253021
 20
174.2722221786542
 30
0.0
  0
VERTEX
  5
1B3
330
1AF
100
AcDbEntity
  8
Talot
 62
   179
420
  1907995
370
   211
100
AcDbVertex
100
AcDb2dVertex
 10
194.3805555069604
 20
179.5638888439979
 30
0.0
  0
VERTEX
  5
1B4
330
1AF
100
AcDbEntity
  8
Talot
 62
   179
420
  1907995
370
   211
100
AcDbVertex
100
AcDb2dVertex
 10
192.664897955306
 20
174.6082912432403
 30
0.0
  0
VERTEX
  5
1B5
330
1AF
100
AcDbEntity
  8
Talot
 62
   179
420
  1907995
370
   211
100
AcDbVertex
100
AcDb2dVertex
 10
202.4996120370487
 20
171.0972221794479
 30
0.0
  0
VERTEX
  5
1B6
330
1AF
100
AcDbEntity
  8
Talot
 62
   179
420
  1907995
370
   211
100
AcDbVertex
100
AcDb2dVertex
 10
198.2649006665796
 20
161.5849690351246
 30
0.0
  0
VERTEX
  5
1B7
330
1AF
100
AcDbEntity
  8
Talot
 62
   179
420
  1907995
370
   211
100
AcDbVertex
100
AcDb2dVertex
 10
190.8527777300646
 20
158.3384833045994
 30
0.0
  0
VERTEX
  5
1B8
330
1AF
100
AcDbEntity
  8
Talot
 62
   179
420
  1907995
370
   211
100
AcDbVertex
100
AcDb2dVertex
 10
165.4593234178366
 20
164.9580620247327
 30
0.0
  0
VERTEX
  5
1B9
330
1AF
100
AcDbEntity
  8
Talot
 62
   179
420
  1907995
370
   211
100
AcDbVertex
100
AcDb2dVertex
 10
164.100577758454
 20
161.1607055261161
 30
0.0
  0
SEQEND
  5
1BA
330
1AF
100
AcDbEntity
  8
Talot
370
   211
  0
HATCH
  5
1BB
330
1F
100
AcDbEntity
  8
Talot
 62
   179
420
  1907995
100
AcDbHatch
 10
0.0
 20
0.0
 30
0.0
210
0.0
220
0.0
230
1.0
  2
SOLID
 70
     1
 71
     0
 91
        1
 92
        1
 93
        9
 72
     1
 10
164.100577758454
 20
161.1607055261161
 11
199.5895398806582
 21
151.830353423414
 72
     1
 10
199.5895398806582
 20
151.830353423414
 11
209.9027777253021
 21
174.2722221786542
 72
     1
 10
209.9027777253021
 20
174.2722221786542
 11
194.3805555069604
 21
179.5638888439979
 72
     1
 10
194.3805555069604
 20
179.5638888439979
 11
192.664897955306
 21
174.6082912432403
 72
     1
 10
192.664897955306
 20
174.6082912432403
 11
202.4996120370487
 21
171.0972221794479
 72
     1
 10
202.4996120370487
 20
171.0972221794479
 11
198.2649006665796
 21
161.5849690351246
 72
     1
 10
198.2649006665796
 20
161.5849690351246
 11
190.8527777300646
 21
158.3384833045994
 72
     1
 10
190.8527777300646
 20
158.3384833045994
 11
165.4593234178366
 21
164.9580620247327
 72
     1
 10
165.4593234178366
 20
164.9580620247327
 11
164.100577758454
 21
161.1607055261161
 97
        0
 75
     2
 76
     1
 98
        0
  0
POLYLINE
  5
1BC
330
1F
100
AcDbEntity
  8
Talot
 62
   179
420
  1907995
370
   211
100
AcDb2dPolyline
 66
     1
 10
0.0
 20
0.0
 30
0.0
  0
VERTEX
  5
1BD
330
1BC
100
AcDbEntity
  8
Talot
 62
   179
420
  1907995
370
   211
100
AcDbVertex
100
AcDb2dVertex
 10
156.0163166927668
 20
160.1444023579674
 30
0.0
  0
VERTEX
  5
1BE
330
1BC
100
AcDbEntity
  8
Talot
 62
   179
420
  1907995
370
   211
100
AcDbVertex
100
AcDb2dVertex
 10
162.8162461615529
 20
172.5083332902063
 30
0.0
  0
VERTEX
  5
1BF
330
1BC
100
AcDbEntity
  8
Talot
 62
   179
420
  1907995
370
   211
100
AcDbVertex
100
AcDb2dVertex
 10
172.7126274524816
 20
173.0374999567406
 30
0.0
  0
SEQEND
  5
1C0
330
1BC
100
AcDbEntity
  8
Talot
370
   211
  0
POLYLINE
  5
1C2
330
1F
100
AcDbEntity
  8
Tiet
 62
   179
420
  1907995
370
   211
100
AcDb2dPolyline
 66
     1
 10
0.0
 20
0.0
 30
0.0
  0
VERTEX
  5
1C3
330
1C2
100
AcDbEntity
  8
Tiet
 62
   179
420
  1907995
370
   211
100
AcDbVertex
100
AcDb2dVertex
 10
210.6083332806813
 20
-10.5833333306875
 30
0.0
  0
VERTEX
  5
1C4
330
1C2
100
AcDbEntity
  8
Tiet
 62
   179
420
  1907995
370
   211
100
AcDbVertex
100
AcDb2dVertex
 10
148.4999796178229
 20
19.40277777292708
 30
0.0
  0
VERTEX
  5
1C5
330
1C2
100
AcDbEntity
  8
Tiet
 62
   179
420
  1907995
370
   211
100
AcDbVertex
100
AcDb2dVertex
 10
122.766666635975
 20
29.28055554823542
 30
0.0
  0
VERTEX
  5
1C6
330
1C2
100
AcDbEntity
  8
Tiet
 62
   179
420
  1907995
370
   211
100
AcDbVertex
100
AcDb2dVertex
 10
108.0822916396461
 20
32.80833332513125
 30
0.0
  0
VERTEX
  5
1C7
330
1C2
100
AcDbEntity
  8
Tiet
 62
   179
420
  1907995
370
   211
100
AcDbVertex
100
AcDb2dVertex
 10
59.61944442953958
 20
44.44999998888751
 30
0.0
  0
VERTEX
  5
1C8
330
1C2
100
AcDbEntity
  8
Tiet
 62
   179
420
  1907995
370
   211
100
AcDbVertex
100
AcDb2dVertex
 10
0.0
 20
53.62222220881667
 30
0.0
  0
SEQEND
  5
1C9
330
1C2
100
AcDbEntity
  8
Tiet
370
   211
  0
POLYLINE
  5
1CA
330
1F
100
AcDbEntity
  8
Tiet
 62
   179
420
  1907995
370
   211
100
AcDb2dPolyline
 66
     1
 10
0.0
 20
0.0
 30
0.0
  0
VERTEX
  5
1CB
330
1CA
100
AcDbEntity
  8
Tiet
 62
   179
420
  1907995
370
   211
100
AcDbVertex
100
AcDb2dVertex
 10
51.15277776498959
 20
218.3694443898521
 30
0.0
  0
VERTEX
  5
1CC
330
1CA
100
AcDbEntity
  8
Tiet
 62
   179
420
  1907995
370
   211
100
AcDbVertex
100
AcDb2dVertex
 10
73.38931882930892
 20
197.9083332838563
 30
0.0
  0
VERTEX
  5
1CD
330
1CA
100
AcDbEntity
  8
Tiet
 62
   179
420
  1907995
370
   211
100
AcDbVertex
100
AcDb2dVertex
 10
113.917422117788
 20
182.3861110655146
 30
0.0
  0
VERTEX
  5
1CE
330
1CA
100
AcDbEntity
  8
Tiet
 62
   179
420
  1907995
370
   211
100
AcDbVertex
100
AcDb2dVertex
 10
137.9474798917284
 20
164.3944444033458
 30
0.0
  0
VERTEX
  5
1CF
330
1CA
100
AcDbEntity
  8
Tiet
 62
   179
420
  1907995
370
   211
100
AcDbVertex
100
AcDb2dVertex
 10
170.9439154303543
 20
156.633333294175
 30
0.0
  0
VERTEX
  5
1D0
330
1CA
100
AcDbEntity
  8
Tiet
 62
   179
420
  1907995
370
   211
100
AcDbVertex
100
AcDb2dVertex
 10
202.1468342593591
 20
147.8138888519354
 30
0.0
  0
SEQEND
  5
1D1
330
1CA
100
AcDbEntity
  8
Tiet
370
   211
  0
POLYLINE
  5
1D2
330
1F
100
AcDbEntity
  8
Tiet
 62
   179
420
  1907995
370
   211
100
AcDb2dPolyline
 66
     1
 10
0.0
 20
0.0
 30
0.0
  0
VERTEX
  5
1D3
330
1D2
100
AcDbEntity
  8
Tiet
 62
   179
420
  1907995
370
   211
100
AcDbVertex
100
AcDb2dVertex
 10
126.3394029089533
 20
-50.63394638491096
 30
0.0
  0
VERTEX
  5
1D4
330
1D2
100
AcDbEntity
  8
Tiet
 62
   179
420
  1907995
370
   211
100
AcDbVertex
100
AcDb2dVertex
 10
142.2144029049846
 20
12.52946777030513
 30
0.0
  0
VERTEX
  5
1D5
330
1D2
100
AcDbEntity
  8
Tiet
 62
   179
420
  1907995
370
   211
100
AcDbVertex
100
AcDb2dVertex
 10
214.8864528542645
 20
176.5711343959614
 30
0.0
  0
SEQEND
  5
1D6
330
1D2
100
AcDbEntity
  8
Tiet
370
   211
  0
POLYLINE
  5
1D7
330
1F
100
AcDbEntity
  8
Tiet
 62
   179
420
  1907995
370
   211
100
AcDb2dPolyline
 66
     1
 10
0.0
 20
0.0
 30
0.0
  0
VERTEX
  5
1D8
330
1D7
100
AcDbEntity
  8
Tiet
 62
   179
420
  1907995
370
   211
100
AcDbVertex
100
AcDb2dVertex
 10
108.0822916396461
 20
32.80833332513125
 30
0.0
  0
VERTEX
  5
1D9
330
1D7
100
AcDbEntity
  8
Tiet
 62
   179
420
  1907995
370
   211
100
AcDbVertex
100
AcDb2dVertex
 10
108.0822916396461
 20
32.80833332513125
 30
0.0
  0
VERTEX
  5
1DA
330
1D7
100
AcDbEntity
  8
Tiet
 62
   179
420
  1907995
370
   211
100
AcDbVertex
100
AcDb2dVertex
 10
160.6382567957779
 20
159.0573024775968
 30
0.0
  0
SEQEND
  5
1DB
330
1D7
100
AcDbEntity
  8
Tiet
370
   211
  0
SPLINE
  5
1DC
330
1F
100
AcDbEntity
  8
Tiet
 62
   116
420
   232504
370
   211
100
AcDbSpline
210
0.0
220
0.0
230
1.0
 70
     8
 71
     3
 72
    86
 73
    82
 74
     0
 42
0.0000000001
 43
0.0000000001
 40
0.0
 40
0.0
 40
0.0
 40
0.0
 40
1.0
 40
1.0
 40
1.0
 40
2.0
 40
2.0
 40
2.0
 40
3.0
 40
3.0
 40
3.0
 40
4.0
 40
4.0
 40
4.0
 40
5.0
 40
5.0
 40
5.0
 40
6.0
 40
6.0
 40
6.0
 40
7.0
 40
7.0
 40
7.0
 40
8.0
 40
8.0
 40
8.0
 40
9.0
 40
9.0
 40
9.0
 40
10.0
 40
10.0
 40
10.0
 40
11.0
 40
11.0
 40
11.0
 40
12.0
 40
12.0
 40
12.0
 40
13.0
 40
13.0
 40
13.0
 40
14.0
 40
14.0
 40
14.0
 40
15.0
 40
15.0
 40
15.0
 40
16.0
 40
16.0
 40
16.0
 40
17.0
 40
17.0
 40
17.0
 40
18.0
 40
18.0
 40
18.0
 40
19.0
 40
19.0
 40
19.0
 40
20.0
 40
20.0
 40
20.0
 40
21.0
 40
21.0
 40
21.0
 40
22.0
 40
22.0
 40
22.0
 40
23.0
 40
23.0
 40
23.0
 40
24.0
 40
24.0
 40
24.0
 40
25.0
 40
25.0
 40
25.0
 40
26.0
 40
26.0
 40
26.0
 40
27.0
 40
27.0
 40
27.0
 40
27.0
 10
46.21388887733542
 20
-51.16896971377026
 30
0.0
 10
46.21388887733542
 20
-51.16896971377026
 30
0.0
 10
46.21388887733542
 20
-51.16896971377026
 30
0.0
 10
47.27222221040417
 20
-43.56805554466354
 30
0.0
 10
48.33055554347292
 20
-35.96714137555683
 30
0.0
 10
47.97777776578334
 20
-37.39444443509583
 30
0.0
 10
50.62361109845521
 20
-32.45555554744167
 30
0.0
 10
53.26944443112708
 20
-27.5166666597875
 30
0.0
 10
64.20555553950418
 20
-13.22916666335938
 30
0.0
 10
67.7333333164
 20
-8.995833331084375
 30
0.0
 10
71.26111109329584
 20
-4.762499998809375
 30
0.0
 10
74.0833333148125
 20
1.940277777292708
 30
0.0
 10
74.61249998134687
 20
3.351388888051042
 30
0.0
 10
75.14166664788125
 20
4.762499998809375
 30
0.0
 10
73.55416664827813
 20
10.40694444184271
 30
0.0
 10
73.55416664827813
 20
11.46527777491146
 30
0.0
 10
73.55416664827813
 20
12.52361110798021
 30
0.0
 10
77.25833331401876
 20
16.58055555141042
 30
0.0
 10
78.3166666470875
 20
18.16805555101354
 30
0.0
 10
79.37499998015625
 20
19.75555555061667
 30
0.0
 10
82.02083331282813
 20
25.75277777133958
 30
0.0
 10
82.88538002485157
 20
28.39861110401146
 30
0.0
 10
83.74992673687503
 20
31.04444443668334
 30
0.0
 10
83.95508217302165
 20
38.60401745996705
 30
0.0
 10
83.95508217302165
 20
38.60401745996705
 30
0.0
 10
83.95508217302165
 20
38.60401745996705
 30
0.0
 10
82.7263888682073
 20
42.50972221159479
 30
0.0
 10
82.90277775705209
 20
43.74444443350833
 30
0.0
 10
83.07916664589688
 20
44.97916665542188
 30
0.0
 10
84.31388886781042
 20
48.15416665462813
 30
0.0
 10
86.25416664510313
 20
52.03472220921354
 30
0.0
 10
88.19444442239583
 20
55.91527776379896
 30
0.0
 10
88.54722220008541
 20
57.79216578416307
 30
0.0
 10
88.89999997777501
 20
60.64608288414404
 30
0.0
 10
89.25277775546459
 20
63.499999984125
 30
0.0
 10
85.90138886741354
 20
64.91111109488334
 30
0.0
 10
88.89999997777501
 20
68.43888887177917
 30
0.0
 10
91.89861108813646
 20
71.966666648675
 30
0.0
 10
94.01527775427397
 20
74.78888887019167
 30
0.0
 10
95.60277775387709
 20
78.66944442477708
 30
0.0
 10
97.19027775348022
 20
82.54999997936251
 30
0.0
 10
97.366666642325
 20
87.48888886701667
 30
0.0
 10
97.89583330885938
 20
89.25277775546459
 30
0.0
 10
98.42499997539376
 20
91.0166666439125
 30
0.0
 10
103.5402777518927
 20
97.19027775348022
 30
0.0
 10
105.3041666403406
 20
100.1888888638417
 30
0.0
 10
107.0680555287885
 20
103.1874999742031
 30
0.0
 10
114.299999971425
 20
116.0638888598729
 30
0.0
 10
115.8874999710281
 20
120.0326388588807
 30
0.0
 10
117.4749999706313
 20
124.0013888578885
 30
0.0
 10
118.1805555260104
 20
126.99999996825
 30
0.0
 10
119.7680555256135
 20
131.4097221893698
 30
0.0
 10
121.3555555252167
 20
135.8194444104896
 30
0.0
 10
122.2695393574535
 20
138.4652777431615
 30
0.0
 10
123.6646307742054
 20
142.6986110754365
 30
0.0
 10
125.0597221909573
 20
146.9319444077115
 30
0.0
 10
127.3527777459396
 20
150.6361110734521
 30
0.0
 10
128.4111110790084
 20
153.9874999615031
 30
0.0
 10
129.4694444120771
 20
157.3388888495542
 30
0.0
 10
133.4497354809605
 20
167.7618529854033
 30
0.0
 10
133.4497354809605
 20
167.7618529854033
 30
0.0
 10
133.4497354809605
 20
167.7618529854033
 30
0.0
 10
137.9237087328802
 20
182.7388888432042
 30
0.0
 10
139.1646321266672
 20
186.6194443977896
 30
0.0
 10
140.4055555204542
 20
190.499999952375
 30
0.0
 10
141.4638888535229
 20
199.3194443946146
 30
0.0
 10
141.2874999646781
 20
201.7888888384417
 30
0.0
 10
141.1111110758333
 20
204.2583332822688
 30
0.0
 10
141.1111110758333
 20
206.2761257079796
 30
0.0
 10
142.5222221865917
 20
208.1388888368542
 30
0.0
 10
143.93333329735
 20
210.0016519657288
 30
0.0
 10
146.2746201891258
 20
213.4305555021979
 30
0.0
 10
148.1025878535993
 20
218.3694443898521
 30
0.0
 10
149.9305555180729
 20
223.3083332775063
 30
0.0
 10
151.628298573204
 20
230.7166666089875
 30
0.0
 10
153.6016492671552
 20
233.5388888305042
 30
0.0
 10
155.5749999611062
 20
236.3611110520208
 30
0.0
 10
159.3515136320371
 20
242.3583332727437
 30
0.0
 10
160.6382567957779
 20
246.2388888273292
 30
0.0
 10
161.9249999595187
 20
250.1194443819146
 30
0.0
 10
164.6300889345369
 20
256.8222221580167
 30
0.0
 10
164.6300889345369
 20
256.8222221580167
 30
0.0
  0
INSERT
  5
1DE
330
1F
100
AcDbEntity
  8
Tiet
100
AcDbBlockReference
  2
block 2
 10
0.0
 20
0.0
 30
0.0
  0
INSERT
  5
1EB
330
1F
100
AcDbEntity
  8
Tiet
100
AcDbBlockReference
  2
block 3
 10
0.0
 20
0.0
 30
0.0
  0
INSERT
  5
1F8
330
1F
100
AcDbEntity
  8
Tiet
100
AcDbBlockReference
  2
block 4
 10
0.0
 20
0.0
 30
0.0
  0
POLYLINE
  5
204
330
1F
100
AcDbEntity
  8
Tiet
 62
   179
420
  1907995
370
   211
100
AcDb2dPolyline
 66
     1
 10
0.0
 20
0.0
 30
0.0
  0
VERTEX
  5
205
330
204
100
AcDbEntity
  8
Tiet
 62
   179
420
  1907995
370
   211
100
AcDbVertex
100
AcDb2dVertex
 10
123.6646307742054
 20
70.23998479146779
 30
0.0
  0
VERTEX
  5
206
330
204
100
AcDbEntity
  8
Tiet
 62
   179
420
  1907995
370
   211
100
AcDbVertex
100
AcDb2dVertex
 10
108.3882161187363
 20
75.61192218161786
 30
0.0
  0
SEQEND
  5
207
330
204
100
AcDbEntity
  8
Tiet
370
   211
  0
POLYLINE
  5
208
330
1F
100
AcDbEntity
  8
Tiet
 62
   179
420
  1907995
370
   211
100
AcDb2dPolyline
 66
     1
 10
0.0
 20
0.0
 30
0.0
  0
VERTEX
  5
209
330
208
100
AcDbEntity
  8
Tiet
 62
   179
420
  1907995
370
   211
100
AcDbVertex
100
AcDb2dVertex
 10
133.9775241093008
 20
94.6529649285937
 30
0.0
  0
VERTEX
  5
20A
330
208
100
AcDbEntity
  8
Tiet
 62
   179
420
  1907995
370
   211
100
AcDbVertex
100
AcDb2dVertex
 10
118.7011094538317
 20
100.0249023187438
 30
0.0
  0
SEQEND
  5
20B
330
208
100
AcDbEntity
  8
Tiet
370
   211
  0
POLYLINE
  5
20C
330
1F
100
AcDbEntity
  8
Tiet
 62
   179
420
  1907995
370
   211
100
AcDb2dPolyline
 66
     1
 10
0.0
 20
0.0
 30
0.0
  0
VERTEX
  5
20D
330
20C
100
AcDbEntity
  8
Tiet
 62
   179
420
  1907995
370
   211
100
AcDbVertex
100
AcDb2dVertex
 10
143.5421427049999
 20
118.1481716284491
 30
0.0
  0
VERTEX
  5
20E
330
20C
100
AcDbEntity
  8
Tiet
 62
   179
420
  1907995
370
   211
100
AcDbVertex
100
AcDb2dVertex
 10
128.2657280495308
 20
123.5201090185991
 30
0.0
  0
SEQEND
  5
20F
330
20C
100
AcDbEntity
  8
Tiet
370
   211
  0
POLYLINE
  5
210
330
1F
100
AcDbEntity
  8
Tiet
 62
   179
420
  1907995
370
   211
100
AcDb2dPolyline
 66
     1
 10
0.0
 20
0.0
 30
0.0
  0
VERTEX
  5
211
330
210
100
AcDbEntity
  8
Tiet
 62
   179
420
  1907995
370
   211
100
AcDbVertex
100
AcDb2dVertex
 10
137.9474798917284
 20
164.3944444033458
 30
0.0
  0
VERTEX
  5
212
330
210
100
AcDbEntity
  8
Tiet
 62
   179
420
  1907995
370
   211
100
AcDbVertex
100
AcDb2dVertex
 10
165.8779025192944
 20
226.8361110544021
 30
0.0
  0
VERTEX
  5
213
330
210
100
AcDbEntity
  8
Tiet
 62
   179
420
  1907995
370
   211
100
AcDbVertex
100
AcDb2dVertex
 10
177.682522199503
 20
226.7771999216043
 30
0.0
  0
SEQEND
  5
214
330
210
100
AcDbEntity
  8
Tiet
370
   211
  0
INSERT
  5
217
330
1F
100
AcDbEntity
  8
Radat
100
AcDbBlockReference
  2
block 5
 10
0.0
 20
0.0
 30
0.0
  0
ENDSEC
  0
SECTION
  2
OBJECTS
  0
DICTIONARY
  5
C
330
0
100
AcDbDictionary
281
     1
  3
ACAD_GROUP
350
D
  3
ACAD_LAYOUT
350
1A
  3
ACAD_MLINESTYLE
350
17
  3
ACAD_PLOTSETTINGS
350
19
  3
ACAD_PLOTSTYLENAME
350
E
  3
ACAD_TABLESTYLE
350
225
  3
ACAD_VISUALSTYLE
350
2A
  0
DICTIONARY
  5
D
102
{ACAD_REACTORS
330
C
102
}
330
C
100
AcDbDictionary
281
     1
  0
DICTIONARY
  5
1A
102
{ACAD_REACTORS
330
C
102
}
330
C
100
AcDbDictionary
281
     1
  3
Layout1
350
1E
  3
Layout2
350
26
  3
Model
350
22
  0
DICTIONARY
  5
17
102
{ACAD_REACTORS
330
C
102
}
330
C
100
AcDbDictionary
281
     1
  3
Standard
350
18
  0
DICTIONARY
  5
19
102
{ACAD_REACTORS
330
C
102
}
330
C
100
AcDbDictionary
281
     1
  0
ACDBDICTIONARYWDFLT
  5
E
102
{ACAD_REACTORS
330
C
102
}
330
C
100
AcDbDictionary
281
     1
  3
Normal
350
F
100
AcDbDictionaryWithDefault
340
F
  0
DICTIONARY
  5
225
102
{ACAD_REACTORS
330
C
102
}
330
C
100
AcDbDictionary
281
     1
  0
DICTIONARY
  5
2A
102
{ACAD_REACTORS
330
C
102
}
330
C
100
AcDbDictionary
281
     1
  3
2dWireframe
350
2F
  3
3D Hidden
350
31
  3
3dWireframe
350
30
  3
Basic
350
32
  3
Brighten
350
36
  3
ColorChange
350
3A
  3
Conceptual
350
34
  3
Dim
350
35
  3
Facepattern
350
39
  3
Flat
350
2B
  3
FlatWithEdges
350
2C
  3
Gouraud
350
2D
  3
GouraudWithEdges
350
2E
  3
Linepattern
350
38
  3
Realistic
350
33
  3
Thicken
350
37
  0
LAYOUT
  5
1E
102
{ACAD_REACTORS
330
1A
102
}
330
1A
100
AcDbPlotSettings
  1

  2
none_device
  4

  6

 40
0.0
 41
0.0
 42
0.0
 43
0.0
 44
0.0
 45
0.0
 46
0.0
 47
0.0
 48
0.0
 49
0.0
140
0.0
141
0.0
142
1.0
143
1.0
 70
   688
 72
     0
 73
     0
 74
     5
  7

 75
    16
 76
     0
 77
     2
 78
   300
147
1.0
148
0.0
149
0.0
100
AcDbLayout
  1
Layout1
 70
     1
 71
     1
 10
0.0
 20
0.0
 11
12.0
 21
9.0
 12
0.0
 22
0.0
 32
0.0
 14
1.000000000000000E+20
 24
1.000000000000000E+20
 34
1.000000000000000E+20
 15
-1.000000000000000E+20
 25
-1.000000000000000E+20
 35
-1.000000000000000E+20
146
0.0
 13
0.0
 23
0.0
 33
0.0
 16
1.0
 26
0.0
 36
0.0
 17
0.0
 27
1.0
 37
0.0
 76
     0
330
1B
  0
LAYOUT
  5
26
102
{ACAD_REACTORS
330
1A
102
}
330
1A
100
AcDbPlotSettings
  1

  2
none_device
  4

  6

 40
0.0
 41
0.0
 42
0.0
 43
0.0
 44
0.0
 45
0.0
 46
0.0
 47
0.0
 48
0.0
 49
0.0
140
0.0
141
0.0
142
1.0
143
1.0
 70
   688
 72
     0
 73
     0
 74
     5
  7

 75
    16
 76
     0
 77
     2
 78
   300
147
1.0
148
0.0
149
0.0
100
AcDbLayout
  1
Layout2
 70
     1
 71
     2
 10
0.0
 20
0.0
 11
0.0
 21
0.0
 12
0.0
 22
0.0
 32
0.0
 14
0.0
 24
0.0
 34
0.0
 15
0.0
 25
0.0
 35
0.0
146
0.0
 13
0.0
 23
0.0
 33
0.0
 16
1.0
 26
0.0
 36
0.0
 17
0.0
 27
1.0
 37
0.0
 76
     0
330
23
  0
LAYOUT
  5
22
102
{ACAD_REACTORS
330
1A
102
}
330
1A
100
AcDbPlotSettings
  1

  2
none_device
  4

  6

 40
0.0
 41
0.0
 42
0.0
 43
0.0
 44
0.0
 45
0.0
 46
0.0
 47
0.0
 48
0.0
 49
0.0
140
0.0
141
0.0
142
1.0
143
1.0
 70
  1712
 72
     0
 73
     0
 74
     0
  7

 75
     0
 76
     0
 77
     2
 78
   300
147
1.0
148
0.0
149
0.0
100
AcDbLayout
  1
Model
 70
     1
 71
     0
 10
0.0
 20
0.0
 11
12.0
 21
9.0
 12
0.0
 22
0.0
 32
0.0
 14
1.000000000000000E+20
 24
1.000000000000000E+20
 34
1.000000000000000E+20
 15
-1.000000000000000E+20
 25
-1.000000000000000E+20
 35
-1.000000000000000E+20
146
0.0
 13
0.0
 23
0.0
 33
0.0
 16
1.0
 26
0.0
 36
0.0
 17
0.0
 27
1.0
 37
0.0
 76
     0
330
1F
331
29
  0
MLINESTYLE
  5
18
102
{ACAD_REACTORS
330
17
102
}
330
17
100
AcDbMlineStyle
  2
Standard
 70
     0
  3

 62
   256
 51
90.0
 52
90.0
 71
     2
 49
0.5
 62
   256
  6
BYLAYER
 49
-0.5
 62
   256
  6
BYLAYER
  0
ACDBPLACEHOLDER
  5
F
102
{ACAD_REACTORS
330
E
102
}
330
E
  0
VISUALSTYLE
  5
2F
102
{ACAD_REACTORS
330
2A
102
}
330
2A
100
AcDbVisualStyle
  2
2dWireframe
 70
     4
 71
     0
 72
     2
 73
     0
 90
        0
 40
-0.6
 41
-30.0
 62
     5
 63
     7
421
 16777215
 74
     1
 91
        4
 64
     7
 65
   257
 75
     1
175
     1
 42
1.0
 92
        0
 66
   257
 43
1.0
 76
     1
 77
     6
 78
     2
 67
     7
 79
     5
170
     0
171
     0
290
     0
174
     0
 93
        1
 44
0.0
173
     0
291
     0
 45
0.0
1001
ACAD
1000
AcDbSavedByObjectVersion
1070
     0
  0
VISUALSTYLE
  5
31
102
{ACAD_REACTORS
330
2A
102
}
330
2A
100
AcDbVisualStyle
  2
3D Hidden
 70
     6
 71
     1
 72
     2
 73
     2
 90
        0
 40
-0.6
 41
-30.0
 62
     5
 63
     7
421
 16777215
 74
     2
 91
        2
 64
     7
 65
   257
 75
     2
175
     1
 42
40.0
 92
        0
 66
   257
 43
1.0
 76
     1
 77
     6
 78
     2
 67
     7
 79
     3
170
     0
171
     0
290
     0
174
     0
 93
        1
 44
0.0
173
     0
291
     0
 45
0.0
1001
ACAD
1000
AcDbSavedByObjectVersion
1070
     0
  0
VISUALSTYLE
  5
30
102
{ACAD_REACTORS
330
2A
102
}
330
2A
100
AcDbVisualStyle
  2
3dWireframe
 70
     5
 71
     0
 72
     2
 73
     0
 90
        0
 40
-0.6
 41
-30.0
 62
     5
 63
     7
421
 16777215
 74
     1
 91
        4
 64
     7
 65
   257
 75
     1
175
     1
 42
1.0
 92
        0
 66
   257
 43
1.0
 76
     1
 77
     6
 78
     2
 67
     7
 79
     5
170
     0
171
     0
290
     0
174
     0
 93
        1
 44
0.0
173
     0
291
     0
 45
0.0
1001
ACAD
1000
AcDbSavedByObjectVersion
1070
     0
  0
VISUALSTYLE
  5
32
102
{ACAD_REACTORS
330
2A
102
}
330
2A
100
AcDbVisualStyle
  2
Basic
 70
     7
 71
     1
 72
     0
 73
     1
 90
        0
 40
-0.6
 41
-30.0
 62
     5
 63
     7
421
 16777215
 74
     0
 91
        4
 64
     7
 65
   257
 75
     1
175
     1
 42
1.0
 92
        8
 66
     7
 43
1.0
 76
     1
 77
     6
 78
     2
 67
     7
 79
     5
170
     0
171
     0
290
     0
174
     0
 93
        1
 44
0.0
173
     0
291
     1
 45
0.0
1001
ACAD
1000
AcDbSavedByObjectVersion
1070
     0
  0
VISUALSTYLE
  5
36
102
{ACAD_REACTORS
330
2A
102
}
330
2A
100
AcDbVisualStyle
  2
Brighten
 70
    12
 71
     2
 72
     2
 73
     0
 90
        0
 40
-0.6
 41
-30.0
 62
     5
 63
     7
421
 16777215
 74
     1
 91
        4
 64
     7
 65
   257
 75
     1
175
     1
 42
1.0
 92
        8
 66
     7
 43
1.0
 76
     1
 77
     6
 78
     2
 67
     7
 79
     5
170
     0
171
     0
290
     0
174
     0
 93
        1
 44
50.0
173
     0
291
     1
 45
0.0
1001
ACAD
1000
AcDbSavedByObjectVersion
1070
     0
  0
VISUALSTYLE
  5
3A
102
{ACAD_REACTORS
330
2A
102
}
330
2A
100
AcDbVisualStyle
  2
ColorChange
 70
    16
 71
     2
 72
     2
 73
     3
 90
        0
 40
-0.6
 41
-30.0
 62
     5
 63
     8
421
  8421504
 74
     1
 91
        4
 64
     7
 65
   257
 75
     1
175
     1
 42
1.0
 92
        8
 66
     8
424
  8421504
 43
1.0
 76
     1
 77
     6
 78
     2
 67
     7
 79
     5
170
     0
171
     0
290
     0
174
     0
 93
        1
 44
0.0
173
     0
291
     1
 45
0.0
1001
ACAD
1000
AcDbSavedByObjectVersion
1070
     0
  0
VISUALSTYLE
  5
34
102
{ACAD_REACTORS
330
2A
102
}
330
2A
100
AcDbVisualStyle
  2
Conceptual
 70
     9
 71
     3
 72
     2
 73
     0
 90
        0
 40
-0.6
 41
-30.0
 62
     5
 63
     7
421
 16777215
 74
     2
 91
        2
 64
     7
 65
   257
 75
     1
175
     1
 42
40.0
 92
        8
 66
     7
 43
1.0
 76
     1
 77
     6
 78
     2
 67
     7
 79
     3
170
     0
171
     0
290
     0
174
     0
 93
        1
 44
0.0
173
     0
291
     0
 45
0.0
1001
ACAD
1000
AcDbSavedByObjectVersion
1070
     0
  0
VISUALSTYLE
  5
35
102
{ACAD_REACTORS
330
2A
102
}
330
2A
100
AcDbVisualStyle
  2
Dim
 70
    11
 71
     2
 72
     2
 73
     0
 90
        0
 40
-0.6
 41
-30.0
 62
     5
 63
     7
421
 16777215
 74
     1
 91
        4
 64
     7
 65
   257
 75
     1
175
     1
 42
1.0
 92
        8
 66
     7
 43
1.0
 76
     1
 77
     6
 78
     2
 67
     7
 79
     5
170
     0
171
     0
290
     0
174
     0
 93
        1
 44
-50.0
173
     0
291
     1
 45
0.0
1001
ACAD
1000
AcDbSavedByObjectVersion
1070
     0
  0
VISUALSTYLE
  5
39
102
{ACAD_REACTORS
330
2A
102
}
330
2A
100
AcDbVisualStyle
  2
Facepattern
 70
    15
 71
     2
 72
     2
 73
     0
 90
        0
 40
-0.6
 41
-30.0
 62
     5
 63
     7
421
 16777215
 74
     1
 91
        4
 64
     7
 65
   257
 75
     1
175
     1
 42
1.0
 92
        8
 66
     7
 43
1.0
 76
     1
 77
     6
 78
     2
 67
     7
 79
     5
170
     0
171
     0
290
     0
174
     0
 93
        1
 44
0.0
173
     0
291
     1
 45
0.0
1001
ACAD
1000
AcDbSavedByObjectVersion
1070
     0
  0
VISUALSTYLE
  5
2B
102
{ACAD_REACTORS
330
2A
102
}
330
2A
100
AcDbVisualStyle
  2
Flat
 70
     0
 71
     2
 72
     1
 73
     1
 90
        2
 40
-0.6
 41
30.0
 62
     5
 63
     7
421
 16777215
 74
     0
 91
        4
 64
     7
 65
   257
 75
     1
175
     1
 42
1.0
 92
        8
 66
     7
 43
1.0
 76
     1
 77
     6
 78
     2
 67
     7
 79
     5
170
     0
171
     0
290
     0
174
     0
 93
       13
 44
0.0
173
     0
291
     1
 45
0.0
1001
ACAD
1000
AcDbSavedByObjectVersion
1070
     0
  0
VISUALSTYLE
  5
2C
102
{ACAD_REACTORS
330
2A
102
}
330
2A
100
AcDbVisualStyle
  2
FlatWithEdges
 70
     1
 71
     2
 72
     1
 73
     1
 90
        2
 40
-0.6
 41
30.0
 62
     5
 63
     7
421
 16777215
 74
     1
 91
        4
 64
     7
 65
   257
 75
     1
175
     1
 42
1.0
 92
        0
 66
   257
 43
1.0
 76
     1
 77
     6
 78
     2
 67
     7
 79
     5
170
     0
171
     0
290
     0
174
     0
 93
       13
 44
0.0
173
     0
291
     1
 45
0.0
1001
ACAD
1000
AcDbSavedByObjectVersion
1070
     0
  0
VISUALSTYLE
  5
2D
102
{ACAD_REACTORS
330
2A
102
}
330
2A
100
AcDbVisualStyle
  2
Gouraud
 70
     2
 71
     2
 72
     2
 73
     1
 90
        2
 40
-0.6
 41
30.0
 62
     5
 63
     7
421
 16777215
 74
     0
 91
        4
 64
     7
 65
   257
 75
     1
175
     1
 42
1.0
 92
        0
 66
     7
 43
1.0
 76
     1
 77
     6
 78
     2
 67
     7
 79
     5
170
     0
171
     0
290
     0
174
     0
 93
       13
 44
0.0
173
     0
291
     1
 45
0.0
1001
ACAD
1000
AcDbSavedByObjectVersion
1070
     0
  0
VISUALSTYLE
  5
2E
102
{ACAD_REACTORS
330
2A
102
}
330
2A
100
AcDbVisualStyle
  2
GouraudWithEdges
 70
     3
 71
     2
 72
     2
 73
     1
 90
        2
 40
-0.6
 41
30.0
 62
     5
 63
     7
421
 16777215
 74
     1
 91
        4
 64
     7
 65
   257
 75
     1
175
     1
 42
1.0
 92
        0
 66
   257
 43
1.0
 76
     1
 77
     6
 78
     2
 67
     7
 79
     5
170
     0
171
     0
290
     0
174
     0
 93
       13
 44
0.0
173
     0
291
     1
 45
0.0
1001
ACAD
1000
AcDbSavedByObjectVersion
1070
     0
  0
VISUALSTYLE
  5
38
102
{ACAD_REACTORS
330
2A
102
}
330
2A
100
AcDbVisualStyle
  2
Linepattern
 70
    14
 71
     2
 72
     2
 73
     0
 90
        0
 40
-0.6
 41
-30.0
 62
     5
 63
     7
421
 16777215
 74
     1
 91
        4
 64
     7
 65
   257
 75
     7
175
     7
 42
1.0
 92
        8
 66
     7
 43
1.0
 76
     1
 77
     6
 78
     2
 67
     7
 79
     5
170
     0
171
     0
290
     0
174
     0
 93
        1
 44
0.0
173
     0
291
     1
 45
0.0
1001
ACAD
1000
AcDbSavedByObjectVersion
1070
     0
  0
VISUALSTYLE
  5
33
102
{ACAD_REACTORS
330
2A
102
}
330
2A
100
AcDbVisualStyle
  2
Realistic
 70
     8
 71
     2
 72
     2
 73
     0
 90
        0
 40
-0.6
 41
-30.0
 62
     5
 63
     7
421
 16777215
 74
     1
 91
        0
 64
     7
 65
   257
 75
     1
175
     1
 42
1.0
 92
        8
 66
     8
424
  7895160
 43
1.0
 76
     1
 77
     6
 78
     2
 67
     7
 79
     5
170
     0
171
     0
290
     0
174
     0
 93
       13
 44
0.0
173
     0
291
     0
 45
0.0
1001
ACAD
1000
AcDbSavedByObjectVersion
1070
     0
  0
VISUALSTYLE
  5
37
102
{ACAD_REACTORS
330
2A
102
}
330
2A
100
AcDbVisualStyle
  2
Thicken
 70
    13
 71
     2
 72
     2
 73
     0
 90
        0
 40
-0.6
 41
-30.0
 62
     5
 63
     7
421
 16777215
 74
     1
 91
        4
 64
     7
 65
   257
 75
     1
175
     1
 42
1.0
 92
       12
 66
     7
 43
1.0
 76
     1
 77
     6
 78
     2
 67
     7
 79
     5
170
     0
171
     0
290
     0
174
     0
 93
        1
 44
0.0
173
     0
291
     1
 45
0.0
1001
ACAD
1000
AcDbSavedByObjectVersion
1070
     0
  0
ENDSEC
  0
EOF
